<?xml version="1.0" encoding="UTF-8" standalone="no"?>
<!-- Created with Inkscape (http://www.inkscape.org/) -->

<svg
   xmlns:dc="http://purl.org/dc/elements/1.1/"
   xmlns:cc="http://creativecommons.org/ns#"
   xmlns:rdf="http://www.w3.org/1999/02/22-rdf-syntax-ns#"
   xmlns:svg="http://www.w3.org/2000/svg"
   xmlns="http://www.w3.org/2000/svg"
   xmlns:sodipodi="http://sodipodi.sourceforge.net/DTD/sodipodi-0.dtd"
   xmlns:inkscape="http://www.inkscape.org/namespaces/inkscape"
   width="220mm"
   height="220mm"
   viewBox="0 0 779.52756 779.52756"
   id="svg2"
   version="1.1"
   inkscape:version="0.91 r13725"
   sodipodi:docname="unipi.svg">
  <defs
     id="defs4" />
  <sodipodi:namedview
     id="base"
     pagecolor="#ffffff"
     bordercolor="#666666"
     borderopacity="1.0"
     inkscape:pageopacity="0.0"
     inkscape:pageshadow="2"
     inkscape:zoom="0.35"
     inkscape:cx="-60.714286"
     inkscape:cy="517.14286"
     inkscape:document-units="px"
     inkscape:current-layer="layer1"
     showgrid="false"
     inkscape:window-width="1920"
     inkscape:window-height="1017"
     inkscape:window-x="-8"
     inkscape:window-y="-8"
     inkscape:window-maximized="1" />
  <metadata
     id="metadata7">
    <rdf:RDF>
      <cc:Work
         rdf:about="">
        <dc:format>image/svg+xml</dc:format>
        <dc:type
           rdf:resource="http://purl.org/dc/dcmitype/StillImage" />
        <dc:title></dc:title>
      </cc:Work>
    </rdf:RDF>
  </metadata>
  <g
     inkscape:label="Layer 1"
     inkscape:groupmode="layer"
     id="layer1"
     transform="translate(0,-272.83465)">
    <path
       style="fill:#000000"
       d="m 333.57513,1043.7204 c -11.7333,-1.9792 -10.8146,-1.1502 -10.0896,-9.1045 0.3476,-3.8127 0.9736,-7.2898 1.3913,-7.7268 1.62,-1.695 3.4732,0.4428 4.5484,5.2472 0.6177,2.7602 1.616,5.4277 2.2185,5.9277 0.6025,0.5 4.2833,1.135 8.1794,1.4111 6.2475,0.4426 7.5576,0.2543 11.0946,-1.5948 7.5056,-3.9238 10.3407,-14.0635 5.7107,-20.4245 -2.1189,-2.9111 -8.768,-6.4222 -12.162,-6.4222 -2.0372,0 -2.5093,-0.3998 -2.5093,-2.125 0,-1.9377 0.4659,-2.1672 5.2856,-2.6043 8.9045,-0.8074 12.9095,-5.0423 13.0358,-13.78418 0.1183,-8.1846 -4.0603,-11.82892 -14.5639,-12.70177 l -6.0075,-0.49922 -3.15,5.94966 c -2.3196,4.38122 -3.6393,5.95164 -5.0061,5.95723 -1.7843,0.007 -1.8252,-0.26233 -1.0564,-6.9674 0.4399,-3.83625 1.1456,-7.33148 1.5683,-7.76717 0.4227,-0.4357 5.9606,-0.8372 12.3064,-0.89223 10.2446,-0.0888 12.0409,0.13097 16.0266,1.96114 10.5934,4.86434 13.8741,12.61032 9.2362,21.80756 -1.4949,2.96448 -3.203,4.65808 -6.525,6.46968 -2.475,1.3497 -5.3873,2.4634 -6.4719,2.475 -3.1726,0.034 -3.2096,1.5497 -0.053,2.181 14.9016,2.9803 17.9375,22.5075 4.7675,30.6643 -3.7666,2.3328 -5.4129,2.735 -12.8947,3.15 -4.867,0.2699 -11.303,0.016 -14.8796,-0.5875 z m 98.0797,-0.9155 c -0.2492,-0.8917 -0.7203,-4.355 -1.047,-7.6963 l -0.594,-6.075 -2.8533,0.01 c -1.5694,0 -7.9159,0.6083 -14.1034,1.3422 -14.0488,1.6663 -15.8845,1.6704 -16.5114,0.037 -0.2917,-0.7601 6.3668,-12.6068 15.8079,-28.125 8.9715,-14.74643 16.3437,-26.87335 16.3827,-26.94869 0.039,-0.0753 1.0787,-0.27785 2.3107,-0.45 l 2.2398,-0.31301 2.4263,22.5 c 1.3345,12.375 2.4528,22.8177 2.4852,23.206 0.032,0.3883 2.1255,0.4319 4.6514,0.097 4.9493,-0.6565 6.167,0.096 6.1936,3.8259 0.016,2.2867 -1.5527,3.0213 -6.4535,3.0213 l -3.62,0 0.6389,7.425 c 0.3514,4.0838 0.6973,7.83 0.7686,8.325 0.071,0.495 -1.7601,1.0221 -4.0699,1.1713 -3.4174,0.2207 -4.284,-0.031 -4.6526,-1.35 z m -11.431,-20.1051 c 4.6842,-0.5223 8.6345,-1.0673 8.7784,-1.2113 0.2864,-0.2864 -2.1545,-24.3425 -2.9687,-29.25699 -0.4889,-2.951 -0.7512,-2.62306 -7.9186,9.89999 -4.0772,7.1237 -8.4304,14.5721 -9.6738,16.5521 -1.2434,1.98 -2.5658,4.1158 -2.9386,4.7463 -0.5177,0.8754 0.1351,1.0367 2.7634,0.6828 1.8926,-0.2549 7.2737,-0.8907 11.9579,-1.4129 z m 61.8569,11.0588 c -0.2104,-0.3712 -1.2956,-3.456 -2.4114,-6.8549 -1.6795,-5.116 -1.8165,-6.3145 -0.7955,-6.9612 1.8558,-1.1756 1.9019,-1.1458 5.7508,3.7133 4.1329,5.2175 4.9631,5.2702 14.4651,0.9173 9.4712,-4.3388 12.7085,-12.3993 8.2914,-20.6447 -2.8691,-5.35568 -6.9648,-7.55738 -12.874,-6.92062 -2.475,0.26669 -5.5125,0.59536 -6.75,0.73037 -1.6794,0.18322 -2.3166,-0.21997 -2.5127,-1.58969 -0.1986,-1.38686 0.6161,-2.2229 3.3349,-3.42242 7.8543,-3.46531 10.3492,-10.80791 6.3415,-18.66358 -3.7175,-7.28695 -9.817,-8.62198 -19.7903,-4.33158 l -4.4734,1.9244 0,6.6075 c 0,5.70262 -0.2483,6.74042 -1.8134,7.57798 -1.369,0.7327 -1.9179,0.68533 -2.2402,-0.19333 -1.9195,-5.23285 -4.0464,-11.98383 -4.0464,-12.84368 0,-1.4799 13.8843,-9.03806 19.7384,-10.74487 6.7466,-1.96707 11.5683,-1.78904 16.2432,0.59974 5.0491,2.57998 7.2951,5.69382 7.8856,10.93275 0.6485,5.75332 -1.6733,11.42244 -6.3,15.38272 l -3.6912,3.15953 5.8217,0 c 8.8763,0 13.9243,3.1172 16.7088,10.31788 1.7203,4.4485 1.3499,8.8149 -1.1781,13.8878 -3.7437,7.5126 -11.9839,12.6063 -26.3116,16.2645 -7.9315,2.0251 -8.8368,2.1364 -9.3932,1.1548 z m -201.9986,-19.721 c -16.6786,-5.6496 -18.7543,-7.504 -8.3997,-7.504 l 6.2252,0 5.1572,-15.52498 c 2.8365,-8.53875 5.3268,-15.98803 5.5342,-16.55395 0.2526,-0.6895 -2.7734,-1.40232 -9.1723,-2.16068 -7.5538,-0.89522 -9.494,-1.40953 -9.2845,-2.46117 0.1964,-0.98541 2.0118,-1.43447 7.0149,-1.7352 3.7125,-0.22316 9.7875,-1.02855 13.5,-1.78976 8.301,-1.70204 11.2844,-1.89606 11.1363,-0.72424 -0.063,0.495 -3.2231,10.5222 -7.0234,22.28266 -3.8003,11.76046 -6.6647,21.77892 -6.3654,22.26332 0.2994,0.4844 2.3462,2.1204 4.5484,3.6356 3.7884,2.6065 5.3352,5.4525 2.8791,5.2974 -0.6187,-0.039 -7.7062,-2.3004 -15.75,-5.025 z M 165.27256,947.62969 c -6.17678,-2.20292 -9.61542,-7.15538 -9.61542,-13.8485 0,-9.25267 6.30645,-15.65526 15.42017,-15.65526 13.46444,0 19.95469,16.31283 10.32253,25.945 -2.62981,2.62981 -7.98354,4.90397 -11.3427,4.81817 -0.7425,-0.019 -2.89556,-0.58571 -4.78458,-1.25941 z m 443.98507,-9.60718 c -5.6751,-2.26294 -9.002,-7.61329 -8.9971,-14.4692 0,-5.63411 2.1776,-9.78062 6.5134,-12.4253 14.2718,-8.70524 30.4456,8.0115 21.054,21.76069 -3.6517,5.3461 -12.1478,7.69484 -18.5703,5.13381 z m -307.8005,-4.03232 c -16.1547,-2.94689 -22.1014,-5.35485 -27.2222,-11.02296 -8.6139,-9.5345 -6.1459,-23.69834 5.2978,-30.40481 3.1075,-1.8211 5.7045,-2.51338 10.6096,-2.82816 l 6.495,-0.41683 -0.3971,-4.78767 c -0.2183,-2.63321 0.076,-6.12832 0.6545,-7.7669 0.9991,-2.83072 0.9042,-3.09141 -1.9029,-5.22924 -1.6249,-1.2375 -7.8658,-6.36279 -13.8686,-11.38953 l -10.9142,-9.13953 -1.4114,2.95968 c -2.2754,4.77157 -6.6836,9.18036 -11.6573,11.65886 -5.6745,2.8277 -15.47656,3.19608 -21.58997,0.81137 -9.63664,-3.75903 -24.37441,-16.43827 -35.91772,-30.90085 -5.18999,-6.50252 -28.22108,-42.44124 -33.45202,-52.2 -32.83859,-61.2631 -39.88792,-151.87039 -17.14704,-220.3963 11.70946,-35.28452 29.77005,-60.41571 51.17356,-71.20768 8.58568,-4.32902 15.61497,-5.77692 24.75,-5.098 l 6.75,0.50166 0.0239,-6.0923 c 0.0198,-5.05731 0.53384,-7.12813 3.02558,-12.18958 5.25735,-10.67919 17.73681,-22.25271 35.42551,-32.85382 4.3313,-2.59578 7.8607,-4.98833 7.8431,-5.31678 -0.017,-0.32846 -0.6106,-1.60969 -1.318,-2.84719 -1.9152,-3.35025 -1.7158,-12.4543 0.345,-15.75 3.1793,-5.08458 5.4514,-6.62472 13.3581,-9.05459 15.1383,-4.65232 25.8174,-6.03381 47.4969,-6.1444 11.6186,-0.0593 24.124,0.40332 30.2646,1.11954 9.182,1.07096 11.7743,1.04389 21.15,-0.22083 34.519,-4.65638 66.0603,-3.38667 89.1252,3.58781 8.4359,2.55088 11.3446,4.52959 13.8353,9.41169 3.0714,6.02051 2.0998,13.35286 -2.3937,18.06403 l -2.2541,2.36325 6.1363,3.40085 c 17.0269,9.43656 33.8371,23.55958 39.266,32.98909 3.0974,5.37977 5.4447,14.47243 4.7257,18.30525 l -0.5544,2.95482 5.6495,-1.79684 c 8.198,-2.60735 19.7211,-1.88171 28.4662,1.79258 17.4584,7.33524 33.7737,24.95431 45.5851,49.22775 33.6688,69.19287 29.5112,180.71942 -9.304,249.57378 -5.2054,9.23399 -28.7412,45.76017 -32.8465,50.97594 -10.795,13.71503 -23.5638,25.39612 -32.6926,29.90783 -6.2826,3.10505 -6.7864,3.20334 -14.4342,2.8161 -5.7818,-0.29276 -8.945,-0.92948 -11.6988,-2.3549 -5.3855,-2.78761 -9.8646,-7.76773 -11.5499,-12.84192 l -1.4548,-4.37989 -7.542,6.59367 c -4.1481,3.62651 -10.188,8.5772 -13.422,11.00152 -5.2407,3.92861 -5.8086,4.6525 -5.2231,6.65786 0.3613,1.2375 0.6355,4.52989 0.6092,7.31642 l -0.048,5.06642 5.9024,0.42373 c 16.5241,1.18626 25.8269,15.75781 18.8837,29.57864 -5.2997,10.54926 -20.0674,15.47466 -46.2814,15.43601 -19.9112,-0.0293 -40.6555,-3.53726 -61.5881,-10.41468 l -6.688,-2.19737 -5.012,1.74042 c -7.4552,2.58889 -27.2875,7.66336 -36.5119,9.34228 -7.7889,1.41766 -39.424,2.59976 -44.55,1.6647 z m 40.05,-9.94827 c 39.5069,-6.0218 86.1116,-26.10132 124.424,-53.60779 l 10.1468,-7.28491 -4.4988,-2.56939 c -4.9724,-2.83987 -9.8984,-10.03051 -9.9136,-14.47121 -0.01,-1.36125 -0.1812,-2.475 -0.3923,-2.475 -0.2112,0 -3.3499,1.95802 -6.975,4.35116 -25.9622,17.13923 -54.1259,30.08833 -84.2207,38.72299 -25.2587,7.24712 -46.4541,10.7322 -69.3111,11.39652 -14.7848,0.42971 -17.3957,1.11694 -20.8298,5.48272 -3.5619,4.5282 -1.5872,13.81305 3.5189,16.54577 3.2775,1.75406 15.4594,4.61941 22.9516,5.39852 8.914,0.92697 23.2336,0.31935 35.1,-1.48938 z m 127.3736,0.54507 c 10.9297,-1.35665 20.5185,-3.99125 22.9953,-6.31813 5.0516,-4.74569 5,-12.46395 -0.1133,-16.95348 -3.8913,-3.41659 -4.0683,-3.45092 -21.1056,-4.09148 -7.6725,-0.28846 -16.6813,-0.88222 -20.0195,-1.31945 l -6.0695,-0.79497 -17.3305,8.76158 c -9.5318,4.81887 -19.3555,9.57389 -21.8305,10.5667 l -4.5,1.80513 4.95,1.50002 c 20.0746,6.08323 46.2515,8.92593 63.0236,6.84408 z m -150.0309,-36.39391 c 16.129,-1.37447 41.0007,-6.9816 61.842,-13.94176 23.3876,-7.81052 45.0775,-18.26016 65.9272,-31.76194 l 8.8119,-5.7064 -3.3849,-2.19968 c -2.1445,-1.39362 -4.2568,-3.94853 -5.7642,-6.97214 l -2.3794,-4.77248 -6.3436,5.82152 c -16.0385,14.71845 -55.3907,32.67872 -87.0233,39.71718 -11.6296,2.58767 -32.3621,5.84539 -37.2434,5.85209 -2.2459,0.003 -3.8233,0.81249 -6.1837,3.1729 -2.7121,2.71207 -3.0867,3.57909 -2.5994,6.01595 0.8027,4.01322 2.9548,6.10625 5.824,5.66409 1.3057,-0.20123 5.1383,-0.60142 8.5168,-0.88933 z m 148.702,-1.75128 c 0.7898,-1.20552 1.3054,-3.22582 1.1457,-4.48958 l -0.2904,-2.29775 -5.791,3.81457 c -5.7632,3.79623 -5.7783,3.81732 -3.15,4.3831 5.0684,1.09105 6.6245,0.81963 8.0857,-1.41034 z m -154.0174,-20.91539 5.7673,-0.53856 -0.4927,-4.77372 c -0.3954,-3.83118 -0.1198,-5.40571 1.3959,-7.97463 l 1.8886,-3.20091 -4.6552,-3.13497 -4.6552,-3.13497 -1.0142,3.99439 c -1.4379,5.66328 -5.2646,10.73372 -9.9623,13.20049 l -4.0375,2.12009 3.3808,2.8567 c 2.6299,2.22224 3.7402,2.66436 4.999,1.99067 0.89,-0.47631 4.2134,-1.10837 7.3855,-1.40458 z m 33.8227,-5.38868 c 29.9493,-6.44808 68.6702,-23.69773 83.25,-37.08683 5.0726,-4.65827 5.6626,-5.51728 3.7896,-5.51728 -1.6772,0 -8.7396,-7.6202 -8.7396,-9.42989 0,-0.75356 -0.2147,-1.37011 -0.4771,-1.37011 -0.2624,0 -3.164,2.2794 -6.4481,5.06533 -14.3676,12.18848 -37.0581,23.51871 -74.5243,37.21297 -8.4148,3.07567 -15.5973,6.06003 -15.9613,6.63191 -1.1247,1.76746 -0.7589,4.89147 0.7493,6.39969 1.6252,1.62523 2.2738,1.55791 18.3615,-1.90579 z m 190.35,0.73797 c 7.035,-3.33057 16.9386,-11.9981 25.7322,-22.52052 7.3837,-8.83544 30.9349,-44.61478 37.9943,-57.72156 15.0265,-27.89884 25.1555,-64.55683 28.4739,-103.04999 0.9489,-11.00763 1.2937,-31.95 0.5259,-31.95 -0.233,0 -2.2816,1.30957 -4.5523,2.91015 -3.5571,2.50724 -5.0362,2.95598 -10.6835,3.24116 -5.3846,0.2719 -7.2386,-0.0178 -10.3849,-1.62295 -2.1065,-1.07466 -3.9511,-1.82443 -4.099,-1.66615 -0.1479,0.15829 -0.7336,6.16029 -1.3015,13.33779 -2.4619,31.11594 -10.2549,62.57068 -23.0222,92.92375 -5.3144,12.63463 -18.8581,33.35457 -32.5167,49.74612 -2.8964,3.47595 -8.1629,10.15845 -11.7033,14.85 -3.5403,4.69157 -9.7166,12.03483 -13.7249,16.31836 -7.9526,8.49851 -8.178,9.13808 -5.9105,16.77358 1.6343,5.50337 5.4318,8.85667 11.3463,10.01923 6.4893,1.27554 8.188,1.08032 13.8262,-1.58897 z m -287.3529,-1.98169 c 4.7002,-1.30537 8.7103,-4.98179 11.1295,-10.20332 l 2.0693,-4.46648 -6.8416,-7.27029 c -8.21304,-8.72775 -17.61535,-20.69952 -24.44099,-31.1203 -2.75593,-4.2075 -7.78965,-11.48973 -11.18604,-16.18274 -14.2085,-19.63279 -22.64219,-36.18036 -31.77847,-62.35189 -7.83831,-22.45338 -11.30643,-40.78344 -12.60244,-66.60771 -0.34109,-6.79671 -0.73791,-12.35765 -0.88182,-12.35765 -0.1439,0 -1.7376,0.87084 -3.54155,1.93519 -7.3445,4.33336 -16.48852,3.72316 -23.41298,-1.5624 l -4.01,-3.0609 0,12.61965 c 0,29.8179 6.36034,65.30205 16.75079,93.45211 5.60341,15.18094 15.14847,33.29371 28.28107,53.66634 14.20136,22.03063 18.92961,28.26065 29.31433,38.62498 7.73162,7.71644 14.89432,12.78796 20.57419,14.56745 4.55701,1.42771 6.3832,1.48261 10.57671,0.31796 z m 46.1621,-5.75623 c 4.1705,-1.74252 6.7332,-6.1426 6.7374,-11.56771 0,-3.87298 -0.4103,-4.75579 -4.0466,-8.64334 -4.4367,-4.74315 -4.7874,-5.88656 -2.5605,-8.34724 2.0249,-2.23745 4.1712,-2.06764 7.3163,0.57882 4.1673,3.50659 6.9943,4.26655 10.4696,2.81448 1.6442,-0.68697 3.6498,-2.19193 4.457,-3.34435 1.814,-2.58981 1.8634,-8.74591 0.089,-11.09183 -1.5978,-2.11241 -1.7238,-6.04059 -0.2414,-7.52299 1.5454,-1.54543 4.7903,-1.33236 6.2348,0.40941 3.6249,4.37097 10.8574,4.27904 13.7758,-0.17508 2.1413,-3.26805 1.7027,-6.86286 -1.4107,-11.56338 -2.4214,-3.65552 -2.6787,-4.56831 -1.8193,-6.4543 1.5537,-3.41002 5.5716,-2.97267 9.0462,0.98467 1.5362,1.74972 2.7932,3.53609 2.7932,3.96971 0,1.94381 8.2721,4.75015 13.906,4.71765 8.7858,-0.0507 13.7936,-3.5399 15.8058,-11.01262 0.7496,-2.78363 0.586,-4.29626 -0.8918,-8.24599 -1.8041,-4.82195 -1.841,-4.85331 -11.8367,-10.05984 -5.5149,-2.87255 -13.2829,-6.61639 -17.2623,-8.31963 -8.9965,-3.85069 -16.7611,-9.33115 -23.4385,-16.54352 l -5.1408,-5.55263 -4.4679,1.07185 c -3.1106,0.74621 -5.2541,0.79777 -7.0558,0.1697 -2.5828,-0.90038 -2.5889,-0.89365 -3.1032,3.44938 -1.2006,10.13694 -10.4212,19.77462 -18.9189,19.77462 -1.7913,0 -2.3546,0.68786 -3.2854,4.01233 -0.6178,2.20678 -2.5365,5.66325 -4.2636,7.68104 -4.4878,5.24298 -8.8369,7.20663 -15.961,7.20663 -3.2373,0 -5.8859,0.39091 -5.8859,0.86868 0,0.47779 -1.2339,2.274 -2.7419,3.99158 -3.1101,3.54214 -8.80854,6.0405 -14.2522,6.24851 -2.03264,0.0777 -3.698,0.47792 -3.7008,0.88942 -0.009,1.2635 11.54245,18.17519 15.4327,22.59473 2.0176,2.29209 4.8168,4.76136 6.2206,5.48726 10.9722,5.67399 21.8201,-7.43806 14.6789,-17.74279 -2.2576,-3.25779 -2.2967,-3.51002 -0.8792,-5.67337 1.6532,-2.52313 3.7549,-2.86832 6.4166,-1.05392 4.7108,3.21106 10.5449,2.17752 14.7513,-2.61328 2.2256,-2.53491 2.774,-3.96553 2.774,-7.2373 0,-2.24282 -0.4192,-4.86123 -0.9317,-5.81868 -1.1766,-2.19853 0.1768,-4.97995 2.8335,-5.82316 1.2736,-0.4042 2.785,0.0473 4.566,1.36405 3.2451,2.39921 9.6868,2.64476 12.9687,0.49437 3.1597,-2.07036 5.7562,-6.68612 5.7601,-10.24008 0.01,-3.67857 -2.3523,-8.88843 -4.553,-10.06618 -4.0006,-2.14106 -2.6697,-8.06984 1.8116,-8.06984 1.9468,0 3.4864,1.01629 6.1867,4.084 11.8503,13.46269 2.6587,34.616 -15.0415,34.616 -4.2993,0 -4.4798,0.10371 -5.0887,2.925 -1.9687,9.12099 -10.2088,16.875 -17.9328,16.875 -1.9883,0 -2.2789,0.38727 -2.2789,3.03685 0,3.97154 -2.1914,10.07643 -4.8844,13.6071 -1.9646,2.57578 -7.2626,5.82606 -11.7656,7.21813 -1.5358,0.47479 -0.347,1.97258 8.1,10.20509 12.7985,12.47352 16.061,14.13122 22.5092,11.43699 z m 194.0361,-2.46427 c 5.5801,-4.41086 18.8047,-17.00961 18.8047,-17.91484 0,-0.3436 -1.3697,-0.88168 -3.0437,-1.19573 -7.492,-1.40551 -14.9563,-10.91477 -14.9563,-19.05384 0,-3.77023 -9e-4,-3.77124 -3.9841,-4.36854 -2.1912,-0.3286 -5.3129,-1.49296 -6.937,-2.58747 -4.3053,-2.90133 -8.6148,-8.9929 -9.3216,-13.17611 -0.6008,-3.55607 -0.7027,-3.64336 -4.257,-3.64336 -6.145,0 -10.7681,-1.91801 -15.1252,-6.27508 -7.6256,-7.62558 -8.4677,-19.06306 -2.0409,-27.71843 3.3641,-4.53065 6.1768,-6.07267 8.8527,-4.85345 3.2547,1.48296 2.8969,5.02197 -0.9369,9.26548 -2.812,3.11254 -3.15,4.0289 -3.15,8.53996 0,4.66998 0.265,5.31833 3.4941,8.54741 3.0373,3.03726 4.0308,3.49411 7.5986,3.49411 2.3936,0 5.3451,-0.71436 7.0809,-1.7138 2.2267,-1.28215 3.5183,-1.50436 5.1278,-0.88226 2.0416,0.78914 2.1218,1.11414 1.5721,6.37364 -1.0036,9.6016 3.7601,16.02242 11.8873,16.02242 1.9981,0 3.8833,-0.405 4.1892,-0.9 0.7689,-1.24404 4.36,-1.13003 5.67,0.18 1.3246,1.32464 1.4166,5.42337 0.1502,6.68984 -1.4819,1.48187 -1.2308,8.7223 0.4128,11.90051 3.2091,6.20589 11.3801,8.15744 17.0711,4.07725 3.296,-2.36307 20.3459,-25.51805 20.3459,-27.63114 0,-0.20351 -2.6448,-0.58232 -5.8774,-0.8418 -6.8617,-0.55079 -12.0769,-3.46899 -14.9737,-8.37856 -1.7008,-2.88279 -2.142,-3.0961 -6.4036,-3.0961 -8.4517,0 -17.0138,-6.3055 -19.4066,-14.29185 -0.9682,-3.23166 -1.3608,-3.55207 -5.0258,-4.10167 -9.6554,-1.44792 -17.591,-10.9474 -17.6079,-21.07777 -0.01,-2.5086 -0.2723,-2.91789 -1.58,-2.41197 -3.4757,1.34463 -6.3747,1.49313 -10.0145,0.513 l -3.8212,-1.02893 -7.8866,7.47459 c -7.7166,7.31353 -27.1016,21.0612 -35.3439,25.06561 -12.5979,6.12054 -7.3069,25.5975 6.8954,25.3828 4.913,-0.0743 7.0023,-1.22017 9.4523,-5.18424 3.7994,-6.14757 10.7935,-7.1058 10.7935,-1.47877 0,1.44034 -0.6309,3.1424 -1.402,3.78236 -2.6945,2.23627 -4.1327,7.17151 -3.0478,10.45879 2.0407,6.18345 8.2156,7.51531 13.8998,2.99805 3.9484,-3.13782 3.9297,-3.13411 6.5497,-1.29897 2.505,1.75457 2.5238,3.83928 0.077,8.53411 -1.6848,3.23255 -1.7939,4.12355 -0.8783,7.17942 0.5749,1.91889 2.1493,4.36345 3.4986,5.43238 2.1891,1.73414 3.1509,1.8812 8.929,1.36522 6.018,-0.5374 6.5492,-0.44087 7.5161,1.36572 0.865,1.61628 0.6285,2.75801 -1.4028,6.77276 -3.1262,6.17878 -2.5827,10.21383 1.9518,14.49034 2.6565,2.50545 3.805,2.95902 7.4925,2.95902 3.7528,0 5.013,-0.52001 9.112,-3.76011 z m -152.141,-8.8599 c 10.8748,-4.00966 10.7526,-3.88492 6.4593,-6.59518 -2.0269,-1.27952 -6.2985,-4.7709 -9.4924,-7.75862 l -5.807,-5.43222 -2.4325,4.97179 c -1.4481,2.9598 -3.6795,5.81918 -5.514,7.06574 l -3.0815,2.09393 6.0819,4.12949 c 3.3451,2.27122 6.1555,4.1555 6.2455,4.18728 0.09,0.0318 3.4833,-1.16621 7.5407,-2.66221 z m 27.4969,-10.66598 c 3.4094,-1.4223 7.3181,-3.10982 8.686,-3.75004 l 2.4873,-1.16405 -6.5353,-3.87494 c -3.5945,-2.13121 -10.042,-6.69412 -14.328,-10.13978 l -7.7927,-6.26485 -1.1062,2.67071 c -0.6084,1.46889 -2.8555,4.21048 -4.9935,6.09243 l -3.8873,3.42171 3.7842,3.68302 c 2.809,2.73377 16.1726,11.91178 17.3441,11.91178 0.078,0 2.9321,-1.1637 6.3414,-2.58599 z m 29.1488,-13.7174 c 6.6917,-3.6463 17.0233,-10.69034 17.0738,-11.64081 0.014,-0.27181 -1.4491,-1.02766 -3.2521,-1.67967 -8.3445,-3.01738 -14.536,-13.59522 -13.5499,-23.1492 l 0.4981,-4.82693 -5.1998,0 -5.1998,0 0.4011,6.525 c 0.3602,5.85936 0.1398,7.02009 -2.1601,11.37817 -3.2814,6.21763 -7.8078,9.83967 -14.6305,11.70729 l -5.432,1.48693 5.6006,3.78785 c 6.2167,4.20456 16.805,10.06959 18.2006,10.08166 0.495,0.005 3.9375,-1.64735 7.65,-3.67029 z m 146.7343,-34.32161 c 4.4169,-2.22729 5.668,-4.27553 9.3969,-15.38361 5.3852,-16.04235 6.1411,-32.04083 2.0961,-44.36281 -2.8611,-8.7155 -9.388,-19.07548 -14.0824,-22.35251 -3.8266,-2.67123 -4.1253,-2.72607 -14.85,-2.72607 -10.6191,0 -11.1131,0.0878 -16.5961,2.95117 -7.0953,3.70535 -14.4251,11.03667 -21.2365,21.24102 -7.8603,11.77566 -9.722,20.12448 -5.8754,26.3484 2.5045,4.05232 5.974,5.70941 11.9541,5.70941 6.0639,0 8.0537,1.56411 7.2744,5.7181 -1.0331,5.50674 5.85,12.65862 11.8886,12.3529 1.8953,-0.096 5.0168,-0.25243 6.9366,-0.34773 3.6737,-0.18236 4.553,0.59298 5.4167,4.77673 0.7187,3.48097 2.4948,5.35103 6.4046,6.7433 4.9564,1.76493 6.6458,1.66476 11.2724,-0.6683 z M 243.9259,782.18836 c 2.9205,-1.96812 4.06065,-3.63756 6.13263,-8.97974 1.1283,-2.90884 4.2773,-3.31674 7.7977,-1.01007 6.5787,4.31055 17.6588,-4.36061 16.1115,-12.60869 -0.8138,-4.33778 1.4279,-6.31898 6.3817,-5.63999 4.9927,0.68433 10.8677,-2.25356 13.2306,-6.61625 1.3708,-2.53093 1.6076,-4.29855 1.205,-8.99423 -0.4431,-5.16785 -1.0586,-6.67816 -5.3183,-13.05 -2.6495,-3.96316 -5.8927,-9.09551 -7.2071,-11.4052 -3.0948,-5.43821 -8.6155,-10.19162 -15.8016,-13.60533 -4.8301,-2.29449 -7.1479,-2.79844 -14.4988,-3.15241 -15.352,-0.73925 -20.63932,2.46226 -27.89317,16.88944 -4.5837,9.11651 -6.28293,16.30521 -6.27999,26.56773 0.004,11.30507 3.6341,26.73085 8.79128,37.35 2.91515,6.0026 11.5958,8.13153 17.34855,4.25474 z m 141.50053,-16.05015 c -6.3782,-1.84455 -3.9981,-4.14617 2.7286,-2.63868 2.9223,0.6549 5.4794,0.65546 8.396,0.002 2.9733,-0.66632 4.4773,-0.65652 5.1675,0.0337 0.6981,0.69806 0.5937,1.21371 -0.3689,1.82229 -1.0362,0.65511 -1.0643,0.85188 -0.1232,0.86252 4.2959,0.0485 29.5117,-16.70086 39.1548,-26.00834 8.2318,-7.94522 12.9521,-14.53057 17.7423,-24.75259 3.5019,-7.4728 7.3279,-20.61047 8.4618,-29.05561 0.5832,-4.34317 0.4266,-4.93152 -2.1736,-8.16706 -5.7245,-7.12342 -4.4085,-17.3184 2.0684,-16.02303 2.5943,0.51887 2.6106,0.49527 2.1307,-3.08283 -0.3183,-2.37299 -1.9108,-5.52622 -4.658,-9.22321 -5.2664,-7.08689 -7.1902,-13.34799 -6.3919,-20.80262 0.4346,-4.05823 0.2208,-6.41017 -0.8061,-8.86806 -2.6176,-6.26481 -1.4492,-15.06572 2.009,-15.13281 1.2805,-0.0248 1.1897,-0.3247 -0.5336,-1.76129 -1.7241,-1.43724 -3.0236,-1.65149 -7.65,-1.26124 -6.6794,0.56343 -10.313,-1.00403 -14.5091,-6.25899 -2.524,-3.16086 -2.764,-4.03929 -2.764,-10.11549 0,-6.53902 -0.045,-6.66982 -2.6199,-7.56723 -1.4409,-0.50226 -3.9451,-1.92403 -5.5649,-3.15951 -3.4703,-2.6469 -4.2325,-2.74459 -5.88,-0.75368 -3.7777,4.56509 -14.6055,6.12836 -21.0352,3.03697 -4.7015,-2.26046 -6.0402,-3.40375 -8.8725,-7.57737 l -2.3537,-3.46838 -4.2869,4.58749 c -2.3578,2.52311 -5.7926,5.20425 -7.633,5.95807 -4.809,1.96982 -11.7411,1.74529 -16.1901,-0.5244 -3.5816,-1.82721 -3.8298,-1.83974 -6.9391,-0.35012 -1.7736,0.84968 -5.5745,1.76058 -8.4464,2.02423 -4.3368,0.39812 -5.1225,0.72435 -4.6363,1.92511 0.3219,0.79518 0.795,2.9173 1.0511,4.71584 1.4471,10.15998 -9.1986,19.75414 -19.0488,17.16733 -2.9558,-0.77624 -3.887,-0.67315 -5.5196,0.61105 l -1.9639,1.54482 2.0129,1.79301 c 1.9116,1.70267 2.0175,2.49374 2.1019,15.70336 0.049,7.6507 -0.2874,15.32786 -0.7473,17.06036 -0.46,1.7325 -2.8707,5.93631 -5.3573,9.34179 -3.2683,4.47614 -4.521,7.01644 -4.521,9.16798 0,2.69846 0.2724,3.0025 2.9188,3.25821 5.5981,0.54091 6.4104,8.79264 1.5171,15.41121 -1.8526,2.50578 -1.9557,3.36494 -1.482,12.34487 0.6079,11.52295 3.6126,21.44673 10.7263,35.42613 3.7894,7.44667 5.9743,10.43803 12.0271,16.46613 6.0599,6.03515 8.756,7.98682 14.9196,10.8 4.1377,1.88852 11.7756,5.61576 16.9731,8.28274 11.2423,5.76877 17.479,8.15352 21.15,8.0873 l 2.7,-0.0487 -2.8807,-0.83307 z m 10.5307,-20.82117 c -1.9586,-1.02847 -4.1321,-1.46977 -5.7469,-1.16685 -3.8949,0.7307 -8.8707,-0.9558 -11.7804,-3.99282 -1.4253,-1.48773 -2.3339,-2.96259 -2.019,-3.27745 0.3149,-0.31487 3.8772,-0.0358 7.9162,0.62012 6.4228,1.04304 7.8346,1.01606 11.2586,-0.2152 4.3377,-1.55982 5.5629,-1.20698 3.5464,1.02123 -1.0624,1.174 -1.1399,2.15316 -0.3863,4.88242 0.5184,1.87766 0.8118,3.49687 0.652,3.59826 -0.1598,0.10137 -1.7081,-0.55999 -3.4406,-1.46971 z m 4.05,-17.98717 c -5.3688,-0.86802 -4.0296,-0.84841 -20.3912,-0.29864 -11.9738,0.40233 -13.3911,0.28607 -15.3561,-1.25967 -1.4677,-1.15442 -2.5817,-1.43922 -3.4588,-0.88421 -2.2148,1.40141 -6.2439,1.01422 -6.2439,-0.60002 0,-0.88726 0.4996,-1.25457 1.2926,-0.95029 1.9589,0.75172 5.9074,-2.8033 5.9074,-5.31874 0,-1.20157 0.3617,-2.18468 0.8037,-2.18468 0.9635,0 1.8963,2.21455 1.8963,4.5021 0,2.70636 5.066,3.33063 7.9829,0.98371 7.8559,-6.32087 8.7862,-6.68444 17.9055,-6.99776 l 8.6754,-0.29806 3.1931,3.04859 c 5.5322,5.28183 9.0431,6.41613 9.0431,2.92162 0,-2.02891 2.547,-5.25675 2.8371,-3.59539 0.075,0.43185 0.2006,1.19019 0.2783,1.68519 0.6383,4.06818 1.562,4.95 5.1847,4.95 3.6338,0 3.6587,0.0223 2.0339,1.81768 -1.2327,1.36213 -2.6774,1.78929 -5.7645,1.70443 -2.2657,-0.0623 -5.7395,0.25012 -7.7195,0.69422 -1.98,0.44412 -5.625,0.48008 -8.1,0.0799 z m -14.4,-28.03584 c -1.2228,-0.91354 -2.9674,-1.18787 -5.4406,-0.85552 -3.0576,0.41088 -4.1077,0.0962 -6.5573,-1.96503 -3.8668,-3.2537 -5.8051,-7.13914 -5.1192,-10.26191 0.6085,-2.77056 7.2581,-9.78696 8.2937,-8.7513 0.3629,0.36283 0.2691,1.18827 -0.2084,1.83433 -5.5665,7.53144 -6.1261,8.71685 -4.7599,10.08302 1.2078,1.20777 1.7635,1.1927 5.0891,-0.13794 3.5129,-1.40558 4.0003,-1.39776 8.2559,0.13255 3.763,1.35313 5.1547,1.45763 8.285,0.6221 3.1966,-0.85323 4.4897,-0.73212 8.599,0.80537 8.5401,3.19526 7.499,5.74527 -3.0964,7.5842 -3.8725,0.6721 -8.0534,1.4544 -9.2909,1.73843 -1.3349,0.30641 -2.982,-0.0305 -4.05,-0.8283 z m -23.3498,-36.47919 c -0.2783,-0.45032 -0.2595,-1.46125 0.042,-2.24649 0.5807,-1.51319 -1.3039,-1.41754 -8.6149,0.43721 -3.1614,0.80202 -5.2174,-0.027 -4.1899,-1.6895 0.7054,-1.14139 11.7677,-3.22183 14.0114,-2.63508 1.0521,0.2751 1.9434,-0.0889 2.2641,-0.92464 0.4528,-1.18001 -0.1541,-1.28095 -4.2169,-0.70146 -16.7022,2.38228 -21.6799,2.06559 -28.2741,-1.79888 -4.657,-2.72915 -5.2362,-3.78087 -4.4348,-8.05265 0.7528,-4.01272 4.2608,-8.14729 8.9513,-10.55009 5.2666,-2.69794 14.9076,-2.69381 20.1009,0.009 4.4528,2.31707 6.1761,2.47267 6.8863,0.62175 1.5367,-4.00448 5.8369,0.65344 8.2424,8.92803 2.0999,7.22355 0.9776,10.84421 -4.8824,15.75048 -4.6828,3.92066 -5.1002,4.12296 -5.8852,2.85271 z m -23.5635,-13.61745 c -0.6924,-2.00963 -0.9911,-4.72717 -0.6678,-6.075 l 0.585,-2.43876 -2.3615,2.16735 c -3.7036,3.39918 -3.9501,5.48648 -0.9328,7.90084 3.9257,3.14132 4.8486,2.71653 3.3771,-1.55443 z m 27.5633,1.18114 c 0,-2.49243 -4.6504,-9.2449 -6.367,-9.2449 -0.3592,0 -0.5957,1.51875 -0.5255,3.375 0.07,1.85625 -0.2015,4.2906 -0.6037,5.40967 -0.6954,1.93492 -0.5295,2.02705 3.3825,1.87908 2.8572,-0.10807 4.1137,-0.54145 4.1137,-1.41885 z m -13.0015,-5.72332 c 0.9274,-1.50068 -1.1585,-3.22156 -2.4001,-1.98 -1.0385,1.03853 -0.3885,2.95842 1.0016,2.95842 0.4366,0 1.0659,-0.44029 1.3985,-0.97842 z m 71.9515,17.56663 c -1.5423,-0.72292 -5.0155,-1.1993 -8.1,-1.111 -4.162,0.11916 -5.4,-0.14135 -5.4,-1.13631 0,-2.03304 13.7816,-1.74795 16.9856,0.35136 1.332,0.87275 2.1825,1.97402 1.89,2.44727 -0.6994,1.13165 -2.0893,0.98911 -5.3756,-0.55132 z m 5.85,-3.6873 c -1.2375,-0.19467 -4.9995,-0.997 -8.3599,-1.78294 -3.3605,-0.78595 -7.3093,-1.18914 -8.775,-0.89598 -2.3096,0.46191 -2.6689,0.26589 -2.6937,-1.46949 -0.028,-1.93671 -0.071,-1.94622 -1.3253,-0.28935 -1.1915,1.57427 -1.3442,1.58903 -1.8841,0.1821 -0.3231,-0.84207 -0.3637,-3.23299 -0.09,-5.31315 0.4045,-3.07535 1.3332,-4.55426 4.9701,-7.9142 5.2401,-4.84106 10.5484,-6.6747 18.8871,-6.52411 11.2541,0.20323 17.9256,3.92457 20.1106,11.21774 1.6403,5.47486 0.5564,7.50014 -5.6829,10.61794 -5.3619,2.67936 -8.7985,3.1717 -15.1568,2.17144 z m 13.5359,-4.8192 c 1.9602,-1.00006 3.5641,-2.23518 3.5641,-2.7447 0,-1.41592 -2.4218,-5.7857 -3.8748,-6.99161 -1.0885,-0.90341 -1.3624,-0.35683 -1.7281,3.44966 -0.2464,2.56446 -1.1365,5.2987 -2.0553,6.31405 -2.1009,2.32136 -0.4888,2.31057 4.0941,-0.0275 z m -22.1977,-1.55671 c -0.4149,-0.86625 -0.762,-3.67691 -0.7713,-6.2459 l -0.017,-4.67091 -2.1105,1.97091 c -2.3999,2.24109 -4.6395,6.18594 -4.6395,8.17187 0,0.88611 1.1438,1.46001 3.375,1.6934 1.8562,0.19418 3.7221,0.42112 4.1463,0.50434 0.4242,0.0832 0.4318,-0.55746 0.017,-1.42371 z m 14.3762,-6.04618 c 0.6347,-1.65406 -1.0527,-2.80051 -2.2944,-1.55882 -0.9607,0.96067 -0.2697,2.88 1.0368,2.88 0.4129,0 0.9788,-0.59453 1.2576,-1.32118 z m -77.2644,-23.25021 c -3.7179,-1.57339 -6.4966,-1.92604 -15.9875,-2.02905 -6.3182,-0.0686 -11.6942,-0.33131 -11.9468,-0.58387 -0.2526,-0.25255 0.2208,-1.02315 1.0518,-1.71244 2.5269,-2.0958 20.2086,-1.45147 26.6404,0.97079 2.8368,1.06836 5.4138,2.35655 5.7266,2.86264 1.2726,2.05919 -1.2471,2.28519 -5.4845,0.49193 z m 54.45,0.90887 c 0,-0.63938 2.3288,-2.31988 5.175,-3.73446 6.6774,-3.3186 16.4299,-4.11424 23.8807,-1.94823 4.887,1.42068 6.826,2.76352 5.6658,3.92373 -0.3074,0.30733 -3.4045,-0.1793 -6.8826,-1.0814 -7.8426,-2.03412 -14.1899,-1.5151 -20.4854,1.6751 -5.0713,2.56981 -7.3535,2.93146 -7.3535,1.16526 z m -15.1312,142.74771 c -0.6497,-0.25998 -1.426,-0.22801 -1.725,0.071 -0.2991,0.29907 0.2325,0.51178 1.1812,0.4727 1.0485,-0.0432 1.2617,-0.25644 0.5438,-0.54374 z m 167.4861,-10.8602 c 5.076,-10.79428 13.2298,-34.47679 17.3197,-50.30497 3.5589,-13.77277 6.4035,-32.30753 7.2822,-47.44933 l 0.6198,-10.6793 -3.8976,2.57931 c -5.3412,3.53465 -13.562,3.65374 -20.3491,0.2948 l -4.6162,-2.2845 -1.5373,11.7345 c -1.6487,12.58499 -3.8253,24.02604 -6.7502,35.48199 l -1.8248,7.14685 3.5295,6.15282 c 6.4368,11.2209 7.7298,16.75242 7.6445,32.70283 -0.051,9.61367 -0.5001,15.41876 -1.4432,18.675 -0.7527,2.59875 -1.084,4.725 -0.7361,4.725 0.3478,0 2.4892,-3.94875 4.7588,-8.775 z m -356.8232,-7.425 c -0.92841,-6.30739 -0.35401,-17.71395 1.22251,-24.27699 1.15072,-4.79046 7.0098,-17.78064 9.76492,-21.64985 l 1.92469,-2.70299 -2.26367,-9.66008 c -2.30506,-9.83674 -5.38809,-27.16246 -6.46725,-36.34409 l -0.59755,-5.084 -4.30857,2.23536 c -2.52855,1.31186 -6.48747,2.42045 -9.58267,2.68337 -4.42257,0.37567 -5.98656,0.0813 -9.68693,-1.82373 l -4.41283,-2.27174 0.57371,12.77238 c 0.64177,14.28743 3.12521,32.56358 5.89637,43.39248 2.10155,8.21231 9.6456,29.89407 13.05661,37.52503 1.26493,2.82983 2.92373,6.63827 3.68624,8.46319 0.7625,1.82492 1.53692,3.1546 1.72093,2.95485 0.18402,-0.19976 -0.0529,-2.99569 -0.52651,-6.21319 z m 258.5026,-18.225 c 3.2565,-1.64214 5.3702,-3.98179 11.1802,-12.375 12.3639,-17.86127 21.536,-24.93834 36.6356,-28.2675 2.0253,-0.44654 2.5507,-1.23185 3.3652,-5.02937 2.3808,-11.10152 3.9631,-28.45086 4.0463,-44.36717 0.087,-16.65792 0.1185,-16.92158 2.0748,-17.41286 3.0982,-0.77805 4.0937,-0.0659 6.5375,4.6769 4.0582,7.87598 11.3904,10.61846 17.8537,6.67786 1.6377,-0.99848 3.6627,-3.03329 4.5,-4.52179 1.6711,-2.97068 5.0494,-4.32677 7.2776,-2.92128 0.7846,0.49492 1.7304,2.6802 2.1019,4.85618 1.1745,6.8802 5.9767,11.51272 12.7225,12.27307 6.3049,0.71064 9.5643,-1.82017 14.09,-10.94031 1.9683,-3.96643 2.6255,-4.57372 4.95,-4.57372 2.3405,0 2.9658,0.59231 4.9304,4.67034 2.8393,5.89357 5.7191,8.94837 9.6629,10.24992 9.2254,3.04465 20.0371,-6.65389 20.0371,-17.97404 0,-4.73504 -3.3651,-30.488 -4.1497,-31.75751 -0.2408,-0.38961 -2.4427,0.67075 -4.8931,2.35635 -6.3414,4.36211 -9.9333,5.32706 -17.6554,4.74304 -3.8983,-0.29483 -6.6018,-0.15092 -6.6018,0.35141 0,1.37885 -7.3423,8.93787 -10.0333,10.32944 -1.3622,0.70442 -4.5004,1.71476 -6.9738,2.24521 -5.5948,1.19987 -14.1973,-0.73863 -18.7761,-4.23104 -1.6693,-1.27319 -3.1328,-2.17275 -3.2523,-1.99901 -7.6434,11.11188 -17.6607,15.32618 -28.7602,12.09947 -2.8029,-0.81484 -6.4741,-2.69123 -8.158,-4.16975 l -3.0617,-2.68822 -1.0104,2.89847 c -1.3311,3.81844 -4.1786,6.75576 -7.6643,7.90613 -2.7273,0.90012 -2.8588,1.18196 -3.7881,8.12361 -0.7599,5.67561 -1.654,8.31089 -4.2423,12.50431 -4.5403,7.35587 -4.5348,10.89135 0.01,5.49187 3.28,-3.89805 6.3082,-3.6465 8.1134,0.67395 0.7754,1.85568 1.6207,5.69994 1.8785,8.54282 0.4076,4.49533 0.167,5.6247 -1.8463,8.66701 -1.3544,2.04666 -3.9437,4.28663 -6.2404,5.39841 -2.8907,1.3994 -4.2239,2.72581 -5.058,5.03236 -2.2697,6.27677 -11.1103,9.23664 -16.6827,5.58545 -4.2176,-2.76345 -4.6594,-2.19046 -6.7101,8.70184 -2.49,13.22516 -5.5978,22.6457 -10.5484,31.97476 -2.1968,4.13962 -3.9941,7.68337 -3.9941,7.875 0,1.04072 4.6437,0.0836 8.1343,-1.67661 z m -155.3891,0.59067 c 1.1696,-0.44882 0.8887,-1.53471 -1.7551,-6.78465 -5.3804,-10.68398 -8.5367,-21.55971 -9.6535,-33.26259 -0.9676,-10.14011 -1.1122,-10.64266 -3.2145,-11.17031 -1.2108,-0.30387 -2.4423,-0.2113 -2.7367,0.20572 -0.2945,0.41702 -1.7038,1.65551 -3.1318,2.75219 -5.3775,4.12984 -14.623,1.47479 -16.9126,-4.85677 -0.8353,-2.31006 -2.2977,-3.78419 -5.4634,-5.50717 -4.4094,-2.39988 -7.1762,-5.89829 -8.243,-10.42243 -0.8991,-3.81306 1.9779,-13.05532 4.5985,-14.77241 2.0596,-1.34946 2.2962,-1.27807 5.2484,1.58327 3.8204,3.70287 5.1483,2.77813 2.3968,-1.66907 -4.014,-6.48764 -5.8192,-11.38057 -6.2698,-16.99421 l -0.457,-5.69293 -3.9017,-1.72593 c -2.1617,-0.9562 -4.6299,-2.92314 -5.5343,-4.41043 l -1.6326,-2.68452 -2.2164,1.72609 c -1.2191,0.94934 -4.4104,2.38073 -7.0918,3.18084 -10.09909,3.01351 -20.03609,-0.66387 -26.68201,-9.87419 l -1.84999,-2.56384 -4.33372,2.74836 c -11.61817,7.36803 -25.85657,4.83073 -33.55276,-5.97914 l -2.39188,-3.35957 -6.59559,0.33306 c -5.7222,0.28896 -7.24641,0.0147 -11.51045,-2.07155 -2.70317,-1.32254 -5.79444,-3.63989 -6.86949,-5.14966 -2.51313,-3.52936 -2.92066,-2.77615 -4.71054,8.70618 -2.48189,15.92181 -2.74573,22.1253 -1.17131,27.54109 2.90537,9.99412 10.8784,15.8266 18.50959,13.54024 4.0615,-1.21685 8.91488,-6.26341 9.67401,-10.05907 1.07944,-5.39721 7.01966,-7.22132 8.85945,-2.72055 2.4253,5.93311 4.90645,9.6827 7.62514,11.52329 7.57116,5.1258 18.7125,-0.29258 20.29223,-9.86877 1.26603,-7.67452 4.33492,-8.12123 10.26986,-1.4949 3.72458,4.15846 4.57128,4.65247 8.62149,5.0302 5.8158,0.54241 9.89485,-2.05887 13.04128,-8.31663 2.37864,-4.73075 5.12119,-6.1236 7.75449,-3.93819 1.0628,0.88207 1.2316,2.3055 0.7818,6.59409 -0.9038,8.61763 2.3475,48.90527 4.5459,56.32943 0.2274,0.76795 2.4088,1.83674 5.0099,2.4546 10.7517,2.55401 20.6601,9.16533 26.1012,17.41595 1.7661,2.67807 5.4977,8.32911 8.2924,12.55788 6.2366,9.4368 11.4201,12.98406 16.2595,11.127 z m 236.2714,-51.21869 c 1.4852,-7.42333 3.1293,-17.14197 3.6535,-21.59697 1.9983,-16.98497 1.9822,-16.00133 0.2507,-15.33371 -7.0822,2.73057 -10.21,2.73761 -18.7535,0.0422 -1.8249,-0.57574 -1.8998,-0.23928 -2.4376,10.94878 -0.4814,10.01431 -2.2567,25.20747 -3.8338,32.80813 -0.4698,2.26444 -0.2871,2.39171 4.2817,2.98241 2.6248,0.33937 6.5949,1.52024 8.8224,2.62416 2.2275,1.10391 4.3349,1.78547 4.683,1.51456 0.3482,-0.2709 1.8483,-6.56618 3.3336,-13.98952 z m -314.73486,11.27897 c 2.2058,-0.97573 6.31653,-2.04508 9.13497,-2.37633 4.13509,-0.486 5.04073,-0.88196 4.69097,-2.05095 -0.92354,-3.08666 -3.18477,-23.0897 -3.75921,-33.25419 l -0.60328,-10.67472 -4.38225,1.66513 c -5.17545,1.96651 -8.90464,2.05208 -13.77847,0.31616 -1.96105,-0.69847 -3.67992,-1.15558 -3.8197,-1.0158 -1.11731,1.11731 6.93834,49.16476 8.24298,49.16476 0.1449,0 2.0682,-0.79833 4.27399,-1.77406 z m 255.37526,-16.45094 c 0.4501,-1.11375 1.0499,-3.11176 1.3328,-4.44002 0.3103,-1.45695 1.3169,-2.65705 2.5373,-3.02511 7.4675,-2.25215 10.5933,-5.40154 5.5042,-5.54579 -1.6925,-0.048 -4.0795,-0.74386 -5.3043,-1.5464 -2.153,-1.41071 -2.227,-1.38843 -2.227,0.67068 0,2.52587 -3.2618,12.33347 -4.5205,13.59215 -1.2904,1.29039 -1.0731,2.31949 0.4898,2.31949 0.7531,0 1.7376,-0.91125 2.1877,-2.025 z m -201.1017,0.2165 c 0.3088,-0.49967 -0.4364,-3.43592 -1.656,-6.525 -1.2196,-3.08908 -2.4917,-7.30962 -2.8269,-9.37899 l -0.6095,-3.76248 -2.4064,2.69305 c -1.7118,1.91559 -3.519,2.84225 -6.2602,3.20985 -3.6649,0.49145 -3.7809,0.59736 -2.3662,2.16054 0.8182,0.90407 2.9573,2.1087 4.7537,2.67696 3.9145,1.23825 5.5162,3.05496 5.5162,6.25658 0,1.3079 0.27,2.64799 0.6,2.97798 0.9264,0.92639 4.6263,0.7092 5.2553,-0.30849 z m 189.441,-3.44929 c 1.4067,-1.40678 3.07,-4.34303 3.6961,-6.525 2.6372,-9.19127 0.2823,-23.17086 -4.4987,-26.70563 -1.4129,-1.04462 -3.3283,-3.74556 -4.2563,-6.00208 -1.425,-3.46473 -2.0723,-4.10328 -4.1624,-4.10613 -2.3971,-0.004 -2.475,0.15067 -2.475,4.89318 0,4.45743 0.4427,5.54292 4.9358,12.10363 5.6477,8.24659 7.3081,13.63775 5.8583,19.0219 -0.9414,3.49586 -2.4206,5.53178 -5.1149,7.03955 -0.7875,0.44074 -1.1487,1.25968 -0.8024,1.81985 1.1067,1.79069 4.1841,1.09605 6.8195,-1.53927 z m -173.4809,-0.65763 c 0.2835,-0.28347 -0.9653,-1.87332 -2.775,-3.53299 -3.1856,-2.92146 -3.2903,-3.21769 -3.2871,-9.29922 0,-6.14879 0.1111,-6.44043 5.0971,-13.79199 7.5501,-11.13193 8.1582,-16.96038 1.7698,-16.96038 -3.0215,0 -3.4729,0.3162 -4.4978,3.15031 -0.6265,1.73267 -2.07,4.26392 -3.2077,5.625 -2.4175,2.89197 -5.0147,12.47235 -5.0147,18.49753 0,4.60259 2.6136,12.44547 5.0414,15.12814 1.4411,1.59236 5.7273,2.33037 6.874,1.1836 z m -19.6749,-25.80958 c 0.4988,-2.07884 0.3029,-2.475 -1.2233,-2.475 -2.1229,0 -2.1461,0.0935 -0.771,3.11145 1.2058,2.64648 1.2068,2.64615 1.9943,-0.63645 z m 206.6595,-1.62812 c 0,-0.52422 -0.405,-0.70281 -0.9,-0.39688 -0.495,0.30592 -0.9,0.73483 -0.9,0.95311 0,0.21829 0.405,0.39689 0.9,0.39689 0.495,0 0.9,-0.42891 0.9,-0.95312 z m -3.3415,-11.24591 c -3.5657,-2.81035 -4.441,-6.73034 -3.065,-13.72477 0.9733,-4.94713 0.8946,-5.39986 -2.144,-12.33095 -1.8843,-4.2982 -3.6063,-7.06589 -4.2769,-6.87395 -0.6174,0.17671 -2.5698,0.52419 -4.3386,0.77217 l -3.216,0.45087 0.3795,4.62783 c 0.308,3.75645 0.011,5.09385 -1.5744,7.10283 -1.0745,1.36125 -2.7343,2.475 -3.6884,2.475 -2.1313,0 -2.3799,3.15982 -0.3111,3.95371 0.783,0.30046 3.8292,0.54629 6.7693,0.54629 5.8967,0 6.4209,0.50908 7.5174,7.30144 0.5615,3.47798 2.3235,5.56388 5.9082,6.99412 4.0637,1.62137 4.9921,1.03221 2.04,-1.29459 z m -198.2653,-1.07597 c 1.9281,-1.75341 2.9541,-3.75438 3.5191,-6.86314 0.4387,-2.41347 1.3466,-4.75828 2.0176,-5.21066 0.6711,-0.45239 3.1443,-0.58998 5.4961,-0.30574 4.5148,0.54566 7.874,-0.57616 7.874,-2.62957 0,-0.67141 -1.0074,-1.47359 -2.2386,-1.78262 -4.1117,-1.03195 -6.522,-7.6235 -4.6847,-12.8109 0.6079,-1.71628 0.3095,-1.97094 -2.7219,-2.32261 -1.8727,-0.21725 -3.91,-0.56481 -4.5274,-0.77237 -0.6883,-0.23141 -2.3642,2.40767 -4.3325,6.82261 -3.172,7.1151 -3.1977,7.27113 -2.1783,13.23249 1.3704,8.01308 -0.1154,12.28115 -4.9666,14.26668 -1.4846,0.60766 -1.29,0.74672 1.1108,0.79378 1.9707,0.0386 3.7899,-0.74235 5.6324,-2.41795 z m -9.8932,-8.325 c 0,-2.08751 -0.3255,-2.17081 -2.9641,-0.75867 -1.9016,1.01774 -1.9054,1.05711 -0.1658,1.73675 2.7518,1.07512 3.1299,0.95698 3.1299,-0.97808 z m 215.8966,0.98295 c 0.996,-0.63077 0.8603,-0.99622 -0.675,-1.81788 -1.6695,-0.89351 -1.9216,-0.78815 -1.9216,0.80326 0,1.98603 0.6572,2.24285 2.5966,1.01462 z m -223.2769,-9.44744 c 1.3367,-0.69547 3.3161,-2.21422 4.3987,-3.375 2.0938,-2.24506 7.0042,-12.23186 7.9521,-16.17318 0.5075,-2.11011 0.2722,-2.40612 -2.2011,-2.76912 l -2.7694,-0.40646 0,5.72303 c 0,3.14767 -0.5831,7.11865 -1.2958,8.82442 -1.6182,3.87273 -6.1774,6.73303 -10.7394,6.73743 -2.9957,0.003 -3.3278,0.19296 -2.3648,1.35337 1.403,1.69045 3.8771,1.72059 7.0197,0.0855 z m 234.8374,-0.23969 c 0.2155,-0.65706 -0.3181,-0.8806 -1.4164,-0.59339 -0.9692,0.25344 -3.5527,-0.33127 -5.7412,-1.29935 -5.1331,-2.27063 -7.1222,-6.22646 -7.1685,-14.25665 -0.033,-5.77972 -0.061,-5.84329 -2.4074,-5.57143 -2.0271,0.23486 -2.3462,0.66913 -2.1858,2.975 0.3145,4.52393 6.6286,15.88986 10.1332,18.24102 3.2518,2.18153 8.1441,2.46261 8.7861,0.5048 z m -259.96417,-3.04378 c 1.80837,-1.01637 4.21197,-3.19635 5.34117,-4.8444 2.5741,-3.75662 9.0507,-6.51432 11.8193,-5.0326 1.0156,0.54356 1.8466,1.37903 1.8466,1.85662 0,1.23447 3.3636,1.07904 4.1489,-0.19172 0.7463,-1.20742 0.6092,-17.53882 -0.2113,-25.18143 -0.4552,-4.24017 -0.2133,-5.68464 1.4471,-8.63887 l 1.9937,-3.54737 -3.6133,-4.77407 c -5.5414,-7.3214 -9.1134,-15.49291 -10.9656,-25.08531 -2.8326,-14.66962 -6.0632,-21.43746 -14.04147,-29.41574 -8.96487,-8.96487 -22.08759,-12.49774 -33.7345,-9.08192 -12.19741,3.57728 -26.50114,15.72419 -36.72194,31.18477 -5.60416,8.47717 -5.64756,8.59194 -5.09565,13.47431 1.39109,12.30596 11.51455,19.16608 21.88752,14.83197 4.36538,-1.82397 7.2282,-1.07086 7.916,2.08243 1.03989,4.76745 2.45061,7.47009 5.03378,9.6437 5.51915,4.64406 13.37694,3.73788 19.18758,-2.21275 5.09879,-5.22164 9.44634,-4.63275 9.48896,1.28534 0.0283,3.9345 2.86148,9.6302 6.17866,12.42142 5.74705,4.83582 13.02996,4.01941 18.99736,-2.12959 3.9263,-4.04581 6.5544,-4.42521 8.637,-1.24683 1.3724,2.09467 1.3653,2.41626 -0.1038,4.65837 -6.1328,9.35987 -18.78337,12.99562 -28.8134,8.28095 -4.35027,-2.04487 -10.05304,-7.97989 -10.89642,-11.34018 -0.28287,-1.12703 -0.62141,-2.04914 -0.75233,-2.04914 -0.13091,0 -2.16072,0.8505 -4.51068,1.89 -7.69815,3.40526 -18.23458,2.04613 -23.70646,-3.05796 -1.16868,-1.09012 -2.88007,-3.45451 -3.80309,-5.25417 l -1.67822,-3.27213 -6.64903,0.0428 c -5.11469,0.0329 -7.61246,-0.42355 -10.82406,-1.97826 -4.25549,-2.06003 -11.3953,-9.23227 -11.3953,-11.44703 0,-4.90947 -4.5682,5.19662 -8.56739,18.95336 -1.40231,4.82377 -1.39313,5.36195 0.16668,9.77168 3.61531,10.22085 11.873,14.48296 20.5897,10.62714 3.92987,-1.73837 4.46977,-1.7819 6.40143,-0.51623 1.16027,0.76024 2.10958,2.0889 2.10958,2.95259 0,2.91838 4.37711,8.0681 8.59187,10.10844 8.19975,3.96943 17.64635,0.72607 21.31777,-7.31916 2.86757,-6.28374 8.13451,-7.40187 9.25447,-1.96465 1.92534,9.34723 4.28332,13.23029 9.63628,15.86871 4.11254,2.02704 10.12568,1.87636 14.09253,-0.35313 z m 295.34187,-0.86982 c 4.1237,-2.10375 7.6772,-7.05722 8.5594,-11.93161 1.1361,-6.27714 6.6694,-6.91421 9.8937,-1.13909 3.9518,7.07824 12.232,10.16208 19.6643,7.32368 4.7073,-1.79775 6.926,-4.08132 9.7016,-9.9852 2.5072,-5.33309 4.4219,-5.9453 10.0591,-3.21637 4.9794,2.41049 6.4569,2.35313 12.1234,-0.47064 5.1723,-2.57745 9.1637,-8.01628 9.1637,-12.48678 0,-1.3836 -1.8931,-8.20475 -4.2069,-15.15811 -4.1105,-12.35257 -4.2395,-12.59249 -5.625,-10.46336 -6.4224,9.86903 -16.1113,14.39532 -26.2901,12.28175 -2.9256,-0.60749 -3.3274,-0.46275 -3.7946,1.36704 -0.854,3.34469 -6.0419,8.90895 -9.9697,10.69294 -5.0063,2.27377 -13.2827,2.19967 -18.4972,-0.1656 -2.2185,-1.00628 -4.1577,-1.45735 -4.3093,-1.00238 -1.2882,3.86464 -6.1414,9.44167 -10.283,11.81677 -9.3858,5.38246 -22.6205,2.79982 -28.7066,-5.60187 -2.9893,-4.12658 -3.1891,-5.34335 -1.2033,-7.32911 2.3019,-2.30192 5.4387,-1.72944 7.6665,1.39917 2.7957,3.92622 8.9103,6.49832 13.5749,5.71024 5.5127,-0.93136 10.1716,-6.03401 11.6098,-12.71554 0.6226,-2.89198 1.5196,-5.7644 1.9934,-6.38315 1.5942,-2.08186 4.4786,-1.14919 8.7225,2.8205 5.1659,4.83211 9.5722,5.89872 15.1495,3.66715 4.0697,-1.62836 6.7653,-5.18048 7.8259,-10.31265 1.2391,-5.99549 2.7081,-6.49851 10.0684,-3.44783 4.133,1.71303 5.15,1.82035 8.3018,0.87602 8.5602,-2.5647 12.6203,-9.08089 11.9347,-19.1547 -0.2552,-3.75041 -10.4038,-18.33056 -17.9993,-25.85906 -11.9295,-11.82431 -22.6854,-16.77103 -35.1309,-16.15704 -18.1741,0.8966 -31.7578,15.37512 -36.1389,38.51943 -2.1217,11.20832 -5.9476,19.69964 -12.4713,27.67905 l -4.5832,5.60587 1.8919,3.20646 c 1.5494,2.62609 1.7864,4.0549 1.3093,7.89412 -0.8725,7.01987 -1.3811,20.56055 -0.8748,23.28749 0.5936,3.19785 2.8758,3.96097 5.0064,1.67407 1.7866,-1.91766 5.6321,-2.45613 6.5806,-0.92145 0.3699,0.59842 1.1572,0.58162 2.3371,-0.0499 2.4367,-1.3041 4.7775,-0.38579 6.2923,2.4686 0.698,1.31524 3.0696,3.53603 5.2703,4.93508 4.876,3.0999 10.2347,3.35278 15.3836,0.72596 z m -215.1815,-17.05722 c 2.8707,-1.53637 2.8559,-3.32501 -0.028,-3.32501 -1.4314,0 -3.3485,-0.675 -4.2601,-1.49999 -2.2486,-2.03502 -2.4498,-1.93404 -2.7004,1.35572 -0.304,3.98956 2.9745,5.61723 6.988,3.46928 z m 127.9526,-2.61912 c 3.1967,-3.19676 3.4929,-3.90523 3.4803,-8.325 -0.018,-6.22793 -0.8503,-7.68064 -3.4656,-6.04734 -1.3322,0.832 -1.9206,2.1118 -1.9206,4.17765 0,5.89633 -3.5864,10.08881 -8.6303,10.08881 -2.3917,0 -2.4108,0.0419 -0.8197,1.8 2.7739,3.06508 7.267,2.39478 11.3559,-1.69412 z m -151.7866,-1.34335 c 1.2225,-1.22254 2.955,-4.97861 4.0475,-8.775 2.676,-9.29893 4.4885,-13.18995 7.2118,-15.48138 2.2201,-1.86812 2.3331,-2.35486 1.9836,-8.54082 -0.618,-10.93754 2.6775,-16.58323 11.9388,-20.45283 3.0511,-1.27485 3.6096,-1.28767 4.7874,-0.10982 0.7334,0.73335 1.408,3.10534 1.4993,5.27106 0.2851,6.76491 2.5647,8.32024 4.0324,2.75126 0.4893,-1.85625 1.3596,-7.02 1.9341,-11.475 0.5745,-4.455 1.6073,-9.46572 2.2952,-11.13491 0.6878,-1.6692 1.2506,-3.39045 1.2506,-3.825 0,-0.43456 -3.1387,-0.78613 -6.975,-0.7813 -8.0561,0.0102 -13.9705,2.27289 -18.9722,7.25847 -5.5595,5.54154 -6.6679,8.95347 -7.4333,22.88274 -0.8591,15.63411 -2.5282,21.02577 -7.268,23.47678 -3.3538,1.73432 -5.4934,1.59993 -8.1806,-0.51386 -2.7915,-2.19573 -3.9155,-1.20243 -4.7837,4.22733 -0.4639,2.90068 -0.108,4.75773 1.6457,8.58832 2.3298,5.08892 5.5321,8.77143 7.6277,8.77143 0.6717,0 2.1831,-0.96186 3.3587,-2.13747 z m 173.1099,0.91989 c 4.8761,-2.70583 6.6738,-8.8292 4.6626,-15.88242 -1.5019,-5.26712 -2.1663,-5.87013 -4.5941,-4.16964 -3.4093,2.38797 -6.8957,1.85162 -10.3377,-1.59036 -1.683,-1.683 -3.06,-2.94948 -3.06,-2.81441 0,0.13508 0.8824,2.22083 1.9608,4.635 1.3661,3.05801 2.0014,6.38438 2.0946,10.96652 0.1882,9.2536 3.2638,12.19036 9.2738,8.85531 z m -193.9684,-8.68242 c -0.4674,-1.78723 -2.9608,-2.58282 -2.9608,-0.94472 0,0.65096 2.2596,2.51684 3.2907,2.71735 0.077,0.015 -0.071,-0.78263 -0.3299,-1.77263 z m 210.3392,-0.95312 c 0,-0.46579 -0.405,-0.84688 -0.9,-0.84688 -0.495,0 -0.9,0.6314 -0.9,1.40312 0,0.77171 0.405,1.15281 0.9,0.84688 0.495,-0.30593 0.9,-0.93733 0.9,-1.40312 z m -161.6257,-3.26352 c -2.2754,-1.66384 -2.8048,-1.49565 -3.2905,1.04549 -0.5738,3.00178 0.01,3.35095 2.6657,1.60768 2.1143,-1.38538 2.1502,-1.53776 0.6248,-2.65317 z m 117.3273,-7.55309 c 2.9908,-1.28326 4.2436,-2.51615 5.6053,-5.51644 1.7392,-3.83222 2.2972,-9.153 1.2468,-11.89022 -0.7828,-2.03992 -1.7108,-1.7616 -2.9112,0.87315 -1.1175,2.45266 -5.8628,4.90324 -9.4945,4.90324 -3.3429,0 -7.4416,-4.00414 -9.0094,-8.80157 -0.7637,-2.33663 -1.8463,-8.09005 -2.4058,-12.78537 -1.4028,-11.77222 -5.3941,-19.44522 -13.239,-25.45134 -4.355,-3.33421 -8.8192,-4.46855 -13.0206,-3.30849 -4.1671,1.15057 -6.077,3.82069 -6.0599,8.47203 0.02,5.36172 1.6898,7.81706 7.3791,10.84784 9.9367,5.29339 12.2848,8.92015 14.9797,23.13654 0.9961,5.25454 2.4241,10.73933 3.1735,12.18843 1.7118,3.31036 7.1468,8.13941 9.7959,8.70389 4.9001,1.04409 5.7345,1.11974 7.8585,0.71241 1.2375,-0.23733 3.9832,-1.17517 6.1016,-2.0841 z m -37.8584,0.10818 c 4.069,-1.84716 5.4169,-4.48589 4.3872,-8.58845 -0.7259,-2.8923 -4.0728,-3.0119 -7.7709,-0.27771 -3.4196,2.52817 -6.6805,1.55462 -9.6607,-2.88417 -2.8533,-4.24976 -3.7988,-4.35532 -3.7988,-0.42414 0,7.21597 5.2298,13.16108 12.15,13.81185 0.495,0.0465 2.607,-0.69027 4.6932,-1.63738 z m -45.618,-0.88807 c -1.2237,-0.94028 -2.5947,-1.48106 -3.0466,-1.20173 -0.452,0.27933 0.1442,1.0433 1.3248,1.69772 3.1938,1.77028 4.2682,1.46075 1.7218,-0.49599 z m -16.1903,-0.96816 c 6.1713,-3.1484 8.0952,-7.32755 11.6433,-25.29221 1.4436,-7.30887 5.2643,-12.82907 10.9691,-15.84828 6.7193,-3.55613 9.4244,-6.4348 10.1647,-10.81696 0.9025,-5.34185 -0.8301,-8.47494 -5.5067,-9.95791 -5.8184,-1.84501 -10.305,-0.21598 -16.4759,5.98215 -6.7906,6.82051 -8.6832,11.1009 -10.4153,23.55554 -1.7805,12.80277 -3.6766,17.43446 -7.9769,19.48513 -2.6755,1.27585 -3.7354,1.34597 -6.7397,0.44587 -1.9606,-0.58743 -4.581,-2.27575 -5.8231,-3.75181 -1.242,-1.47606 -2.5311,-2.68374 -2.8647,-2.68374 -0.3335,0 -0.4543,3.01187 -0.2684,6.69305 0.3723,7.37268 2.1234,10.34293 7.5087,12.73647 4.1155,1.82915 11.6379,1.56833 15.7849,-0.5473 z m 149.3639,-13.96092 c 4.9624,-6.38257 7.9477,-13.425 9.5276,-22.47624 1.4564,-8.34433 3.6922,-14.8511 7.1382,-20.77436 l 2.1405,-3.67929 -16.8275,0.0793 c -15.563,0.0734 -17.2334,0.24171 -22.2276,2.24051 -3.0197,1.20856 -6.7373,3.56879 -8.4338,5.35446 -2.9505,3.10554 -3.0209,3.35478 -2.5617,9.07491 0.3857,4.80464 0.845,6.1314 2.5082,7.24554 1.1199,0.75013 3.9275,3.18638 6.2391,5.41388 4.8946,4.71648 9.9414,15.6908 10.554,22.95 0.63,7.46611 0.889,7.63442 4.8472,3.15 1.9661,-2.2275 5.1592,-6.08792 7.0958,-8.5787 z m -212.2082,4.77031 c 0.5766,-6.56758 5.5081,-17.81579 10.0661,-22.9593 3.7417,-4.22235 5.9433,-10.2123 5.9433,-16.16975 0,-6.04156 -6.905,-11.30952 -18.0447,-13.7666 -5.0306,-1.10962 -25.3553,-0.99597 -26.4994,0.14818 -0.3222,0.32219 0.3919,2.14281 1.5869,4.04583 3.531,5.62299 6.7312,14.6177 8.1968,23.03788 0.7576,4.35289 2.5756,10.39349 4.0629,13.5 2.8951,6.04686 12.3016,18.12304 13.5268,17.36584 0.4098,-0.25326 0.9324,-2.59419 1.1613,-5.20208 z m 95.7494,0.74839 c 2.3278,-2.32778 3.06,-3.82259 3.06,-6.24688 0,-3.78359 -1.3199,-4.97177 -2.6865,-2.41833 -1.2608,2.35585 -4.6627,2.34661 -6.803,-0.0184 -1.136,-1.25522 -2.5438,-1.75793 -4.4108,-1.575 -2.5095,0.24587 -2.8089,0.63587 -3.528,4.59671 -0.7026,3.86969 -0.5672,4.56071 1.2781,6.525 1.5853,1.68743 2.9877,2.19696 6.0471,2.19696 3.3298,0 4.485,-0.5019 7.0431,-3.06 z m 92.4982,-9.62772 c -1.3048,-2.90739 -2.9007,-5.72472 -3.5466,-6.26072 -1.1939,-0.99085 -1.1513,2.57551 0.1592,13.35459 l 0.4688,3.85614 2.6455,-2.83193 2.6454,-2.83193 -2.3723,-5.28615 z m -172.6838,5.26272 c 0.3211,-2.59875 0.4371,-6.5475 0.2577,-8.775 l -0.3262,-4.05 -3.3429,6.91601 c -3.8348,7.93344 -3.9975,8.83399 -1.5961,8.83399 0.9608,0 1.9972,0.405 2.3031,0.9 1.2231,1.97902 2.149,0.66951 2.7044,-3.825 z m 144.2653,-11.76335 c 0.3451,-6.52138 1.8063,-7.50697 7.4102,-4.99805 2.1932,0.98195 4.7063,2.43562 5.5844,3.23037 2.398,2.17014 2.8545,0.85739 1.7032,-4.89752 -1.2025,-6.01062 -5.7484,-13.16889 -10.3218,-16.2532 -2.9073,-1.96068 -13.5626,-4.62635 -14.5491,-3.6398 -0.2577,0.25761 0.3522,2.32348 1.3551,4.59083 1.003,2.26734 2.4185,8.36038 3.1456,13.54009 0.7271,5.17971 1.7364,10.50761 2.2429,11.83979 1.4757,3.88149 3.1306,2.23478 3.4295,-3.41251 z m -40.5447,0.97422 c 0.6188,-0.49845 1.125,-2.42755 1.125,-4.28688 0,-2.93974 -0.3678,-3.53296 -2.8202,-4.5488 -2.6476,-1.09664 -2.9277,-1.02066 -4.5751,1.24081 -2.0552,2.8214 -5.1688,3.13486 -7.3373,0.73868 -0.8314,-0.91868 -1.9562,-4.19429 -2.4996,-7.27913 l -0.988,-5.60881 -1.7417,2.55413 c -3.4214,5.0174 -0.8212,13.53374 5.1119,16.74305 4.421,2.3914 11.0436,2.60707 13.725,0.44695 z m -28.575,-6.53587 c 0,-3.79228 -1.1211,-3.97534 -4.1737,-0.68151 l -2.2877,2.46849 2.1057,0.5918 c 3.9334,1.10545 4.3557,0.87481 4.3557,-2.37878 z m -63.3656,-21.24328 c 2.5644,-2.83362 8.7706,-6.21475 14.5641,-7.9345 6.4486,-1.91422 9.216,-5.43808 9.1729,-11.68031 -0.059,-8.55553 -7.7861,-12.46976 -16.1714,-8.19191 -4.5563,2.32443 -5.9517,2.26822 -7.6395,-0.30771 -1.2429,-1.8968 -1.24,-2.50471 0.028,-6.075 1.7752,-4.99702 1.0994,-8.82117 -2.1006,-11.88693 -4.1167,-3.94405 -7.5324,-4.68292 -12.8346,-2.77629 -3.3726,1.21277 -4.9335,1.3859 -6.0717,0.67341 -2.0651,-1.29278 -2.4192,-5.24895 -0.6907,-7.71676 4.4861,-6.40474 -2.1672,-17.81072 -10.3892,-17.81072 -4.6941,0 -8.4234,1.6434 -16.7729,7.39121 -9.4792,6.5256 -19.23266,16.45145 -22.27404,22.6678 -3.31047,6.76636 -2.94687,13.36321 1.0057,18.24674 4.08643,5.04892 7.53674,5.83962 22.41424,5.13665 14.4694,-0.68367 22.2072,0.53161 31.5661,4.95766 6.5544,3.09974 11.859,8.88318 12.6427,13.78387 0.627,3.92111 1.1695,4.15381 3.5506,1.52279 z m 149.0197,-7.10044 c 3.0179,-4.26172 11.0019,-8.362 20.3181,-10.43466 5.5622,-1.23748 9.3428,-1.42358 19.5373,-0.96168 14.525,0.65812 17.8391,0.0323 21.8502,-4.12614 5.5188,-5.72144 6.0905,-11.19441 2.0201,-19.33996 -5.4081,-10.82247 -27.69,-28.85743 -36.7255,-29.72563 -7.0465,-0.67708 -11.615,2.57122 -13.6639,9.71529 -0.6686,2.33139 -0.463,3.82305 0.9751,7.07413 3.2639,7.37854 0.487,10.48339 -6.8648,7.67569 -3.3942,-1.29624 -4.6375,-1.37746 -7.582,-0.49524 -6.378,1.91089 -9.1227,7.42207 -7.2791,14.61573 1.9745,7.70389 -0.6801,10.39158 -7.0526,7.1406 -10.6361,-5.42616 -18.9078,3.28697 -14.0829,14.8345 1.2586,3.01238 1.4725,3.12109 6.1397,3.12109 5.7947,0 11.8185,1.91262 15.5062,4.92337 2.3735,1.93778 2.8088,2.03345 3.6,0.7911 0.495,-0.7773 1.9818,-2.94099 3.3041,-4.80819 z m -108.4299,-4.57079 c 8.6568,-7.97952 18.7559,-10.09911 27.8792,-5.85126 2.5594,1.19165 5.1455,3.11145 5.7469,4.2662 0.6015,1.15477 1.2093,2.23649 1.3509,2.40382 0.1415,0.16734 1.4029,-0.53911 2.8031,-1.56987 3.7904,-2.79044 12.2619,-5.48438 17.2464,-5.48438 3.079,0 5.9739,0.79608 9.6647,2.65777 2.898,1.46177 5.4219,2.50494 5.6087,2.31814 1.2884,-1.28844 -21.0987,-13.89681 -27.3244,-15.38901 -1.4573,-0.34931 -3.0547,-0.92756 -3.5497,-1.28501 -0.495,-0.35745 -3.5294,-1.5232 -6.7431,-2.59053 l -5.8431,-1.94062 -4.3665,2.26544 c -2.4016,1.246 -4.6897,2.06574 -5.0846,1.82165 -0.8509,-0.52589 -21.4238,9.76754 -23.3283,11.67211 -2.0988,2.09876 -4.5673,9.31125 -3.3569,9.80817 2.9321,1.20376 5.5856,0.31821 9.2967,-3.10262 z m 71.7949,-15.1382 c 0.8188,-2.57975 6.3017,-7.56725 9.6543,-8.7819 1.6371,-0.59315 4.4954,-1.10926 6.3516,-1.14692 2.2304,-0.0453 3.375,-0.48814 3.375,-1.30597 0,-0.68063 0.2336,-2.40188 0.519,-3.825 l 0.5191,-2.5875 -5.2861,0.29571 c -4.4034,0.24634 -5.4305,0.62204 -6.1508,2.25 -0.7637,1.72575 -1.4736,1.92663 -6.0707,1.71777 -6.1378,-0.27887 -8.4665,0.75205 -10.0144,4.43338 -1.5027,3.57386 -0.8132,6.68877 1.9641,8.87339 2.8418,2.23537 4.4463,2.25942 5.1389,0.077 z m -77.0888,-2.83235 c 2.8309,-2.63738 2.6237,-7.1655 -0.4694,-10.25863 -2.2602,-2.26012 -2.8116,-2.39592 -7.5133,-1.85024 -4.0684,0.4722 -5.3687,0.29425 -6.5608,-0.89786 -1.9215,-1.92146 -1.8671,-3.01603 0.3132,-6.30821 2.1425,-3.23502 2.2422,-5.08434 0.4599,-8.53091 -1.6128,-3.11878 -3.846,-3.99883 -10.2488,-4.03885 -6.0159,-0.0376 -7.4631,-1.61451 -5.5816,-6.08234 0.6827,-1.62134 1.4214,-4.86281 1.6415,-7.20326 0.5002,-5.32005 -1.9492,-9.71485 -6.6605,-11.95052 -4.3032,-2.04202 -8.1529,-1.4493 -16.9321,2.60693 l -7.0777,3.27011 3.7807,3.23612 c 4.5859,3.92535 7.2413,8.87418 7.9437,14.80427 0.4943,4.17393 0.6808,4.43845 3.1292,4.43845 8.0495,0 16.2513,7.58075 18.2574,16.875 0.5254,2.43441 1.0448,2.925 3.0965,2.925 5.6865,0 11.6202,2.64546 15.123,6.74235 1.8804,2.19924 3.8487,4.0119 4.3741,4.02814 0.5254,0.0162 1.8417,-0.79627 2.925,-1.80555 z m 61.1167,-7.38203 c 0.5603,-2.0994 0.9478,-3.88664 0.8609,-3.97164 -0.5743,-0.56208 -10.8874,2.17713 -11.1487,2.96119 -0.2554,0.76606 6.4764,4.4116 8.7799,4.75469 0.269,0.0401 0.9475,-1.64485 1.5079,-3.74424 z m -42.9409,-1.13607 c 5.6653,-2.92964 1.5212,-11.12231 -5.0838,-10.05045 -3.3825,0.5489 -6.6223,-1.41165 -6.6223,-4.00748 0,-0.99496 1.0125,-3.13646 2.25,-4.75891 2.5709,-3.3706 2.8134,-5.82996 0.9333,-9.46563 -1.5458,-2.9892 -2.975,-3.66437 -7.7569,-3.66437 -3.5757,0 -7.1535,-2.38055 -7.1014,-4.725 0.014,-0.61875 1.2288,-2.71589 2.7,-4.66033 4.3685,-5.77356 3.4464,-13.37341 -2.0276,-16.71089 -3.8942,-2.37432 -7.2255,-2.271 -15.9838,0.49577 l -7.2794,2.29953 3.5134,3.99142 c 3.985,4.52722 6.0091,10.47178 5.3185,15.62033 -0.4452,3.31923 -0.3267,3.53205 2.2538,4.04814 6.8112,1.36225 12.0594,7.70827 12.7513,15.41861 0.2676,2.98178 0.6866,3.49874 3.6669,4.52331 4.6352,1.59351 8.351,5.41373 10.1256,10.41021 1.6328,4.59716 1.7955,4.62127 8.3424,1.23574 z m 47.8275,-12.53276 c 5.2709,-0.7807 14.5504,-1.68651 20.6211,-2.01293 8.9892,-0.48335 11.3446,-0.90042 12.6915,-2.24732 2.2079,-2.20795 2.0911,-3.13447 -0.724,-5.74347 -2.3163,-2.14668 -2.6481,-2.1904 -12.825,-1.68966 -14.6816,0.72237 -29.8229,2.67806 -45.53,5.88075 -7.4155,1.51203 -13.7431,2.91005 -14.0613,3.10669 -0.3181,0.19664 0.3829,2.25639 1.5578,4.57722 1.175,2.32084 2.1363,4.70402 2.1363,5.29598 0,0.72947 4.2777,-0.0232 13.275,-2.33577 7.3013,-1.87663 17.5876,-4.05079 22.8586,-4.83149 z m 50.9414,-6.41256 c 0.6188,-0.18977 1.1247,-1.26898 1.1244,-2.39828 -6e-4,-1.855 -0.4351,-2.05958 -4.5,-2.11898 -4.4926,-0.0656 -4.4994,-0.0613 -4.4994,2.86842 0,2.87416 0.069,2.92454 3.375,2.46401 1.8563,-0.25859 3.8813,-0.62541 4.5,-0.81517 z m -81.9454,-7.21014 c 24.16,-5.22562 31.5929,-6.03219 57.8127,-6.27337 22.5708,-0.20761 24.7939,-0.36609 25.875,-1.84458 1.6719,-2.28643 1.4667,-6.12324 -0.4542,-8.49551 -1.4186,-1.75183 -2.9493,-2.13731 -11.475,-2.88972 -22.4366,-1.98005 -58.2665,0.51336 -81.8381,5.69515 -12.3358,2.7118 -11.6104,2.26363 -9.0673,5.60218 1.2001,1.57546 2.673,4.81816 3.2732,7.20602 0.9784,3.89251 1.3065,4.28752 3.1723,3.81925 1.1445,-0.28727 6.8602,-1.556 12.7014,-2.81942 z m -17.4475,-21.10213 c 32.2447,-7.6581 69.6514,-9.78102 102.1951,-5.79983 8.8286,1.08004 10.5675,1.07513 12.7159,-0.0358 2.7525,-1.42337 3.6069,-2.99315 3.6069,-6.62691 0,-4.19863 -2.2916,-6.21951 -9.7053,-8.55871 -12.6823,-4.00158 -24.883,-5.44028 -46.0947,-5.43546 -24.0048,0.005 -47.1931,2.63365 -70.9365,8.04003 -6.0619,1.3803 -6.4781,1.61964 -5.2245,3.00481 2.4704,2.72982 5.0211,9.50859 5.0412,13.39768 0.011,2.10375 0.1903,3.825 0.3987,3.825 0.2085,0 3.8099,-0.81484 8.0032,-1.81075 z m -64.9721,-9.77664 c 7.2379,-2.96322 17.7679,-6.81384 23.4,-8.55691 5.632,-1.74308 12.8725,-3.99333 16.09,-5.00055 l 5.85,-1.83132 -15.3,0.38486 c -22.4543,0.56482 -40.4471,4.34991 -45.7138,9.6167 -2.251,2.251 -2.5789,3.14647 -2.1407,5.84667 0.5883,3.6256 2.2264,6.01953 3.6737,5.36904 0.5394,-0.24245 6.9028,-2.86527 14.1408,-5.82849 z M 71.577099,873.66195 c -8.61763,-13.6191 -9.06813,-16.39431 -1.81583,-11.18611 3.09664,2.22384 4.55748,2.77396 5.81297,2.18904 0.92229,-0.42969 12.65771,-7.66626 26.078721,-16.08126 l 24.40183,-15.3 -0.57046,-5.625 c -0.44304,-4.36862 -0.30317,-5.62215 0.62618,-5.61228 0.65815,0.007 4.53773,5.35315 8.62128,11.88034 8.05735,12.87895 8.4871,15.43995 1.85434,11.0506 -2.11405,-1.39902 -4.26149,-2.54366 -4.77209,-2.54366 -0.5106,0 -12.36479,7.19056 -26.34263,15.97902 -16.846291,10.59197 -25.407031,16.48336 -25.392791,17.475 0.0118,0.82279 0.37146,3.00278 0.79923,4.84441 0.56038,2.41259 0.45834,3.61353 -0.36511,4.29693 -0.87526,0.7264 -2.96749,-1.93511 -8.93564,-11.36703 z M 698.19983,862.64018 c -5.2068,-2.8361 -5.885,-3.49082 -5.0891,-4.91299 0.8201,-1.46543 1.715,-1.57447 8.3714,-1.01999 l 7.4532,0.62085 3.2609,-6.51813 c 3.9808,-7.95707 4.2388,-12.17603 0.9814,-16.04717 -2.8917,-3.43666 -7.1274,-4.90301 -10.9752,-3.79949 -1.5866,0.45503 -8.4098,3.96858 -15.1626,7.8079 -10.0248,5.69952 -13.15,7.05288 -17.0295,7.3746 -6.0692,0.5033 -10.5751,-1.00421 -15.0291,-5.02812 -4.9213,-4.44606 -6.4334,-7.76054 -6.4487,-14.13453 -0.019,-8.11904 3.6443,-15.31688 14.1451,-27.78949 l 2.1805,-2.59 7.2296,3.90483 c 6.3285,3.41814 7.1178,4.11357 6.3333,5.57955 -0.7892,1.47448 -1.6147,1.60454 -6.9051,1.08782 -3.3048,-0.32279 -6.6413,-0.75992 -7.4143,-0.97139 -1.9174,-0.52454 -7.7992,9.52865 -8.5658,14.6407 -1.044,6.96197 2.9397,12.37177 9.9479,13.50903 3.511,0.56977 6.4358,-0.43555 14.4234,-4.95773 13.4503,-7.61482 17.498,-9.31014 22.3326,-9.35358 14.0988,-0.12669 22.7563,13.76557 17.2254,27.64077 -2.2078,5.53871 -12.3721,18.56537 -14.3096,18.33936 -0.5216,-0.0608 -3.6517,-1.5831 -6.9557,-3.3828 z M 49.209969,836.25065 c -0.73976,-2.12687 -2.1756,-5.94186 -3.19074,-8.47776 l -1.84574,-4.61074 17.5138,-28.1423 c 9.63258,-15.47826 17.32692,-28.32917 17.09851,-28.55757 -0.47298,-0.47299 -41.09182,14.84446 -42.20545,15.91576 -0.39973,0.38455 -0.96265,2.98436 -1.25091,5.77738 -0.2906,2.81559 -0.97048,5.0782 -1.52592,5.0782 -0.82755,0 -9.54637,-20.81356 -9.54637,-22.78909 0,-1.55323 2.50168,-0.30093 5.81593,2.91135 l 3.63407,3.52226 32.15005,-12.3972 c 17.68253,-6.81847 32.36378,-12.18348 32.625,-11.92226 0.26122,0.26122 0.47494,1.02908 0.47494,1.70636 0,0.67727 -9.12835,15.69074 -20.28524,33.36325 -11.15688,17.67251 -19.96498,32.23859 -19.57354,32.36907 0.39145,0.13049 11.64605,-3.965 25.01025,-9.10107 l 24.298531,-9.3383 0.45,-5.28718 c 0.3075,-3.61282 0.83429,-5.28719 1.66347,-5.28719 0.71789,0 2.9818,4.52689 5.54342,11.08456 3.57482,9.15139 4.0942,11.17502 2.97809,11.60331 -0.83416,0.32009 -2.71998,-0.84934 -4.92433,-3.05369 l -3.57244,-3.57245 -28.519101,10.99227 -28.5191,10.99227 -0.45,5.20681 c -0.2475,2.86373 -0.91174,5.35849 -1.47609,5.54389 -0.56433,0.1854 -1.63133,-1.40308 -2.37109,-3.52994 z M 735.73423,804.78347 c -0.2332,-0.65992 -0.5371,-3.17042 -0.6755,-5.57889 l -0.2516,-4.37904 -28.7649,-9.79696 -28.7649,-9.79698 -3.6692,3.60102 c -3.2713,3.2106 -5.851,4.56365 -5.851,3.06891 0,-2.29598 9.4733,-27.36791 10.3408,-27.36791 0.6829,0 1.307,1.93401 1.628,5.04476 0.2864,2.77461 0.748,5.27204 1.0258,5.54985 0.2778,0.2778 13.3639,4.89852 29.0802,10.26826 l 28.5752,9.76315 3.15,-3.62694 c 1.7325,-1.99482 3.8484,-3.62068 4.702,-3.61301 1.3314,0.012 0.8801,1.95465 -3.1762,13.67265 -4.4023,12.71748 -6.3077,16.1378 -7.3487,13.19113 z m 14.3729,-45.2986 c -0.495,-0.18006 -3.8591,-0.80069 -7.4758,-1.3792 -5.9007,-0.94382 -6.5475,-1.24587 -6.3,-2.9417 0.2298,-1.57482 1.4011,-2.12249 7.0258,-3.28512 l 6.75,-1.39523 0.9743,-4.95 c 0.5359,-2.7225 1.2108,-6.41727 1.4999,-8.2106 l 0.5255,-3.2606 -31.1142,-5.11704 c -25.049,-4.11954 -31.2695,-4.88747 -31.911,-3.9394 -0.4382,0.64771 -1.7998,3.10139 -3.0258,5.45264 -2.5012,4.79706 -5.381,5.93951 -4.5373,1.8 0.6552,-3.21444 5.0386,-29.55039 5.0386,-30.27242 0,-0.30391 0.5891,-0.55258 1.3092,-0.55258 0.8099,0 1.5301,1.28712 1.8883,3.375 0.3185,1.85625 0.8661,4.59 1.2169,6.075 l 0.6378,2.7 27.3989,4.62642 c 15.0694,2.54453 29.0461,4.85539 31.0594,5.13524 l 3.6604,0.50881 1.3288,-8.40439 1.3287,-8.40438 -5.8892,-3.53455 c -4.0144,-2.40935 -5.8892,-4.09048 -5.8892,-5.28085 0,-1.99128 1.3949,-2.03371 11.475,-0.34899 5.3278,0.89045 6.0713,1.25437 6.0447,2.95901 -0.017,1.06903 -2.1521,14.69741 -4.7455,30.2853 -4.7455,28.52443 -5.0406,29.53582 -8.2742,28.35963 z M 22.907149,697.02735 c -4.41143,-2.04242 -7.99875,-5.75266 -9.85226,-10.18982 -1.66196,-3.9786 -1.85756,-15.46597 -0.40535,-23.80519 l 0.99239,-5.69871 8.07021,0 c 7.68984,0 8.05664,0.0891 7.7826,1.89018 -0.21252,1.39679 -1.99081,2.60422 -6.81259,4.62564 l -6.525,2.73547 0,5.84494 c 0,11.14369 3.04836,16.29263 10.06895,17.00733 6.08544,0.61949 8.34086,-1.43788 16.39343,-14.95399 3.91181,-6.56591 8.14756,-13.16824 9.41277,-14.67187 6.53792,-7.76988 21.75455,-8.06736 28.65588,-0.56022 4.22719,4.59826 6.03361,10.50891 5.87785,19.23252 -0.0796,4.455 -0.66534,10.53 -1.30175,13.5 l -1.15713,5.4 -8.325,0.25877 c -7.66106,0.23813 -8.325,0.12281 -8.325,-1.44599 0,-1.26277 1.89642,-2.55942 7.31462,-5.00124 l 7.31462,-3.29648 -0.40855,-6.95753 c -0.68191,-11.6126 -4.39789,-16.40753 -12.71551,-16.40753 -5.71054,0 -8.35508,2.55001 -16.13125,15.55471 -3.57653,5.98132 -7.88321,12.21578 -9.57041,13.85436 -5.05825,4.91252 -13.60712,6.20813 -20.35352,3.08465 z M 690.79493,684.10863 c -0.244,-1.60875 -0.6457,-7.85126 -0.8925,-13.87224 -0.3727,-9.09194 -0.2245,-11.03329 0.8744,-11.45498 0.9105,-0.34937 1.9338,0.74923 3.2811,3.52224 1.0768,2.21648 2.4064,4.02998 2.9546,4.02998 0.5482,0 5.8286,-1.94861 11.7342,-4.33024 l 10.7374,-4.33024 -0.3031,-10.23359 c -0.1667,-5.62849 -0.5957,-11.02457 -0.9533,-11.99131 -0.4839,-1.30797 -3.5073,-2.64774 -11.8163,-5.23617 -6.1413,-1.91315 -11.2798,-3.47845 -11.4189,-3.47845 -0.1391,0 -1.1602,1.89357 -2.2691,4.20794 -1.109,2.31437 -2.4634,4.35341 -3.0098,4.53118 -1.1649,0.37897 -2.1565,-7.63158 -2.1565,-17.42114 0,-7.95582 1.6235,-8.88187 4.65,-2.65238 l 1.9267,3.96561 35.0044,12.4291 35.0043,12.4291 -0.2677,3.13522 -0.2677,3.13523 -32.85,13.61014 -32.85,13.61014 -2.25,4.61907 c -2.6002,5.33799 -4.2314,5.93375 -4.8622,1.77579 z m 47.2046,-33.87536 13.7509,-5.30034 -14.1922,-4.6541 c -7.8057,-2.55975 -14.3813,-4.46497 -14.6125,-4.23381 -0.4129,0.41294 0.6442,19.48861 1.08,19.48861 0.1226,0 6.4108,-2.38516 13.9738,-5.30036 z M 45.407149,625.44672 c -10.89,-2.08818 -21.10527,-4.05806 -22.7006,-4.37751 -2.67318,-0.53529 -3.1176,-0.26544 -5.66824,3.44179 -2.40952,3.50212 -5.3966,5.36308 -5.37339,3.34763 0.0208,-1.80492 5.23447,-27.36724 5.6708,-27.80358 1.09459,-1.09459 2.16835,0.72764 3.23356,5.4875 0.61433,2.74509 1.33348,4.99108 1.59812,4.99108 0.26464,0 11.40866,2.05459 24.76449,4.56575 25.99477,4.88754 28.83207,5.00627 34.22929,1.43238 5.40379,-3.57824 9.09036,-15.09926 7.51634,-23.48953 -0.80782,-4.30604 -5.11167,-9.058 -9.78731,-10.80635 -2.08069,-0.77803 -14.21517,-3.36579 -26.96553,-5.75058 l -23.18246,-4.33601 -2.78636,4.34217 c -2.73677,4.2649 -3.83077,5.08924 -4.75957,3.5864 -0.25689,-0.41566 0.58098,-6.28816 1.86195,-13.05 2.60658,-13.75932 3.95976,-15.46709 5.78677,-7.30316 0.61433,2.7451 1.37529,5.15075 1.69105,5.3459 0.31575,0.19514 10.47342,2.21484 22.57258,4.48822 12.09918,2.27338 23.77541,4.72211 25.94718,5.44163 11.20035,3.7107 16.71899,14.43417 14.56681,28.3053 -2.85704,18.41407 -9.66334,26.24565 -22.62463,26.03276 -3.18498,-0.0523 -14.70085,-1.80361 -25.59085,-3.89179 z M 682.59833,596.79345 c -0.6998,-1.98808 -8.5412,-30.97808 -8.5412,-31.57732 0,-0.32038 0.5502,-0.5825 1.2226,-0.5825 0.6724,0 2.7015,2.2275 4.5092,4.95 1.8076,2.7225 3.5862,4.94921 3.9524,4.94823 0.9975,-0.003 59.7986,-16.08098 60.1703,-16.45277 0.2622,-0.26215 -1.8088,-8.59387 -3.7674,-15.15638 -0.3322,-1.11317 -2.1224,-1.60803 -7.5207,-2.07893 -5.9616,-0.52003 -7.157,-0.89464 -7.541,-2.36318 -0.251,-0.95985 -0.1907,-1.88345 0.1341,-2.05245 1.5528,-0.808 16.4245,-4.41053 16.7721,-4.0629 0.2183,0.21825 3.6719,12.52917 7.6747,27.3576 4.0029,14.82843 7.6245,28.0218 8.0481,29.31861 0.7594,2.3247 0.6672,2.3855 -6.5671,4.32769 -4.0355,1.08343 -7.9959,2.16002 -8.8007,2.39242 -0.9279,0.2679 -1.6373,-0.24238 -1.9386,-1.39438 -0.3746,-1.43243 0.7445,-2.71244 5.2884,-6.04882 3.17,-2.32754 5.7573,-4.25505 5.7496,-4.28333 -3.7402,-13.76055 -4.3472,-15.34356 -5.8321,-15.20832 -0.864,0.0787 -14.6846,3.69424 -30.7124,8.03452 l -29.1415,7.89145 0,6.04418 c 0,4.60849 -0.3288,6.17034 -1.3841,6.57529 -0.7612,0.29212 -1.5598,0.0317 -1.7747,-0.57871 z m -582.923241,-41.2258 -0.26795,-5.46598 -26.54999,-11.65426 c -14.6025,-6.40985 -27.36313,-11.86692 -28.35693,-12.12685 -1.26662,-0.33128 -2.73231,0.48214 -4.90156,2.72023 -2.9721,3.06644 -5.44151,4.12982 -5.44151,2.34323 0,-1.60338 13.28634,-30.68897 15.65108,-34.26234 5.45084,-8.23678 15.4509,-11.14516 24.67592,-7.17666 12.43937,5.35127 15.81366,17.35314 9.3695,33.32588 -1.48953,3.692 -2.44685,6.99276 -2.12737,7.33502 0.70128,0.75132 20.906801,9.72771 21.896671,9.72771 0.38342,0 2.37705,-1.8225 4.43028,-4.05 3.35812,-3.64313 6.18992,-5.18159 6.21227,-3.375 0.0255,2.05971 -12.15818,28.125 -13.14642,28.125 -0.80955,0 -1.259541,-1.70338 -1.443991,-5.46598 z m -20.70654,-31.20902 c 4.91495,-11.46242 2.52762,-18.75101 -7.9114,-24.15379 -4.60144,-2.3815 -13.48329,-2.29693 -16.80593,0.16002 -2.86387,2.11772 -8.9603,13.68086 -7.79817,14.79085 0.77548,0.74067 29.10653,13.38881 30.11827,13.44602 0.31029,0.0175 1.38905,-1.89185 2.39723,-4.2431 z m 581.300781,7.27951 c -4.5431,-9.92953 -5.7657,-13.40063 -4.9068,-13.93144 0.7373,-0.45569 2.4513,0.57623 4.8225,2.90339 l 3.6787,3.61034 27.8217,-12.87189 27.8217,-12.87191 0.2765,-4.9465 c 0.1522,-2.72058 0.6463,-5.31915 1.0982,-5.77463 0.7872,-0.7935 11.0542,19.6401 12.2378,24.35598 0.7598,3.02741 -0.9631,2.6899 -5.3241,-1.04296 -2.0337,-1.74082 -3.9615,-3.05707 -4.2839,-2.925 -0.3223,0.13206 -12.7784,5.85815 -27.6802,12.72465 l -27.0941,12.48454 -0.2651,5.44402 c -0.1458,2.99422 -0.6897,5.58396 -1.2086,5.75497 -0.519,0.17102 -3.6664,-5.64008 -6.9943,-12.91356 z m -533.73851,-28.9044 c -0.2702,-0.43719 0.0534,-2.85958 0.71908,-5.3831 1.14681,-4.34735 1.10921,-4.67815 -0.71621,-6.30133 -1.05959,-0.9422 -12.22781,-9.14751 -24.81825,-18.23401 l -22.891701,-16.52093 -4.44898,2.48395 c -7.07982,3.95282 -7.23559,1.9492 -0.56568,-7.27622 16.76164,-23.18368 19.21383,-25.849 24.73505,-26.88479 7.856721,-1.47393 14.624511,1.25494 19.582831,7.89607 3.06964,4.11146 3.53503,12.52584 1.04784,18.94525 -0.56946,1.46976 0.66883,1.575 18.53198,1.575 18.88679,0 19.1944,-0.0306 23.05221,-2.29141 2.42559,-1.42149 4.38517,-2.01943 5.16163,-1.575 0.96831,0.55424 0.0631,2.34623 -3.99884,7.91641 l -5.25047,7.2 -21.43208,-0.53145 c -18.59115,-0.461 -21.58121,-0.34872 -22.55709,0.84702 -0.61875,0.75816 -1.125,1.62929 -1.125,1.93586 0,0.48221 19.27957,14.81379 22.21676,16.51496 0.58672,0.33982 2.9747,-0.59214 5.30665,-2.07102 3.87192,-2.45551 5.77659,-2.8114 5.77659,-1.07939 0,0.96316 -16.10372,23.03461 -17.04133,23.35653 -0.43655,0.14988 -1.01479,-0.0852 -1.28499,-0.5224 z m -15.44759,-43.61309 c 5.68207,-8.4374 3.99126,-16.49147 -4.66591,-22.22574 -3.18468,-2.10945 -5.17833,-2.76128 -8.445421,-2.76128 -4.90179,0 -7.59811,1.82425 -12.21849,8.26669 l -2.85374,3.97912 11.85374,8.68185 c 6.519551,4.77503 12.146721,8.70222 12.504821,8.72711 0.3581,0.0248 2.07935,-2.07561 3.825,-4.66775 z m 532.7632,41.32922 c -0.2499,-0.65107 4.6284,-17.52047 10.8406,-37.48756 6.2123,-19.96709 11.1464,-36.45239 10.9648,-36.634 -0.3122,-0.31215 -40.3045,28.4107 -42.6455,30.6284 -0.8671,0.82138 -0.841,2.02785 0.123,5.68189 2.1977,8.33112 0.071,7.56729 -7.3966,-2.65694 -3.6951,-5.05892 -7.1143,-9.69949 -7.5983,-10.31238 -1.8386,-2.32817 2.0567,-2.25234 5.6257,0.10951 1.9571,1.29516 4.0015,2.35484 4.543,2.35484 0.5416,0 11.9314,-7.96372 25.3108,-17.69716 l 24.3262,-17.69716 -0.6541,-3.67784 c -1.6948,-9.52913 -0.4695,-9.57376 6.3531,-0.2314 l 5.146,7.04645 -9.564,31.36002 c -5.2602,17.24801 -9.564,31.7773 -9.564,32.28733 0,0.51002 8.4037,-5.17441 18.675,-12.63205 l 18.675,-13.55936 -0.3623,-3.27441 c -0.6406,-5.78842 -0.5574,-7.59288 0.3623,-7.86431 0.495,-0.14609 3.9996,4.06688 7.788,9.36214 7.9163,11.06506 8.1304,13.58647 0.7646,9.00765 l -4.3928,-2.73068 -2.9799,2.09011 c -1.6389,1.14956 -14.0123,10.10473 -27.4962,19.90038 -13.484,9.79566 -24.938,17.81029 -25.4533,17.81029 -0.5153,0 -1.1413,-0.53269 -1.3911,-1.18376 z M 169.65736,445.91488 c -0.3106,-0.50257 0.47429,-2.96417 1.7442,-5.47023 l 2.30895,-4.55648 -20.33227,-22.92726 c -11.18275,-12.61 -20.64011,-22.92728 -21.01635,-22.92728 -0.37626,0 -2.61076,0.65648 -4.96557,1.45885 -8.71129,2.96823 -6.56562,0.17669 13.47114,-17.52608 10.72762,-9.47803 19.82714,-17.23277 20.22112,-17.23277 0.39399,0 3.01256,2.61542 5.81904,5.81204 7.08039,8.06468 5.63572,9.87754 -3.99657,5.01517 l -5.29478,-2.67279 -9.02157,7.84779 c -4.96186,4.31628 -9.04451,8.05029 -9.07254,8.29779 -0.0458,0.40475 4.17409,5.29032 15.83187,18.32912 l 3.91531,4.37911 5.0748,-4.37911 c 2.79115,-2.40851 6.26685,-5.39395 7.72377,-6.6343 l 2.64895,-2.25519 -1.8703,-4.92222 c -1.55794,-4.10014 -1.67002,-5.12251 -0.67115,-6.1214 0.99888,-0.99887 2.46286,0.24289 8.76545,7.43499 4.16146,4.74878 7.70121,9.02428 7.86613,9.5011 0.6745,1.95025 -2.64365,1.75068 -6.91973,-0.41616 l -4.55211,-2.30673 -7.239,6.42054 c -3.98146,3.53131 -7.23901,6.73907 -7.23901,7.12837 0,0.91682 18.95544,22.44188 19.76282,22.44188 0.33708,0 4.69016,-3.6181 9.67348,-8.04022 l 9.06062,-8.04022 -1.58021,-6.79771 c -1.38286,-5.94871 -1.41577,-6.93419 -0.26358,-7.89042 1.45383,-1.20657 1.81161,-0.84463 8.06081,8.15461 3.35633,4.83333 3.35717,4.83688 1.49365,6.34588 -1.02552,0.8304 -9.8518,8.57669 -19.61396,17.21395 -9.76217,8.63728 -18.08223,15.82676 -18.48904,15.97664 -0.4068,0.14988 -0.99377,-0.13869 -1.30437,-0.64126 z m 421.68727,-13.16235 c -12.3874,-5.76638 -23.9079,-15.79088 -27.8947,-24.27261 -9.351,-19.89339 7.9702,-48.23315 32.1611,-52.6198 13.9772,-2.53454 29.7402,5.32274 43.3934,21.63006 l 3.5408,4.22906 -5.0497,6.1822 c -2.7774,3.4002 -5.3465,6.29693 -5.709,6.43716 -0.3626,0.14024 -1.1767,-0.36848 -1.8091,-1.13048 -0.9492,-1.14373 -0.726,-2.57939 1.2795,-8.22831 l 2.4292,-6.84285 -2.0895,-2.24911 c -3.5574,-3.82908 -13.0009,-10.14809 -17.4123,-11.6512 -6.0669,-2.06723 -14.8001,-1.26652 -21.1272,1.93708 -6.5715,3.32736 -15.053,12.23075 -18.9328,19.87456 -2.739,5.39631 -3.1172,6.96592 -3.1171,12.93834 2e-4,5.85549 0.3709,7.46643 2.6767,11.62979 2.6407,4.76792 9.5583,11.70687 14.6613,14.70648 l 2.6186,1.53926 5.5467,-6.85666 c 3.0506,-3.77116 5.5417,-7.29883 5.5358,-7.83926 -0.01,-0.54044 -0.9692,-2.65844 -2.1405,-4.70668 -1.2531,-2.1913 -1.8388,-4.19469 -1.423,-4.86747 0.5049,-0.81694 3.8232,1.37766 11.6223,7.68644 6.0035,4.85641 11.1294,9.17589 11.3908,9.59882 0.9645,1.5606 -2.4256,1.79592 -6.3938,0.44381 l -4.0872,-1.39266 -6.5039,7.98523 c -3.5772,4.39188 -6.9089,8.01158 -7.4039,8.04378 -0.495,0.0322 -3.0881,-0.96005 -5.7625,-2.20498 z M 218.65714,401.00201 c 0,-0.89739 1.215,-2.79566 2.7,-4.21838 1.485,-1.42272 2.7,-3.15898 2.7,-3.85835 0,-0.69938 -5.96008,-13.42345 -13.24461,-28.27572 l -13.24461,-27.00412 -5.17426,0.37428 c -8.50449,0.61516 -7.49287,-1.29081 3.65163,-6.87999 l 9.73594,-4.88276 22.31249,20.21381 c 12.27186,11.11759 22.42021,20.10109 22.55201,19.96332 0.1317,-0.13775 -0.7202,-13.00797 -1.8931,-28.60047 -1.17293,-15.5925 -2.14674,-29.03734 -2.16404,-29.87743 -0.022,-1.06609 2.74424,-2.83305 9.15824,-5.85 5.0543,-2.37741 9.3743,-4.32257 9.6,-4.32257 1.6294,0 0.5816,2.71937 -2.2596,5.86421 l -3.3782,3.73928 7.2546,14.54826 c 3.99,8.00154 10.0049,20.3195 13.3665,27.37325 l 6.1118,12.825 5.7076,0 c 4.034,0 5.7076,0.3374 5.7076,1.15068 0,0.63287 -5.6642,3.95968 -12.5871,7.39291 -9.8811,4.90027 -12.8223,6.007 -13.6813,5.14799 -0.859,-0.85902 -0.3586,-1.84764 2.3276,-4.59863 2.7727,-2.83944 3.2945,-3.90647 2.7504,-5.62365 -0.7906,-2.4947 -23.1592,-47.61966 -23.4575,-47.32142 -0.1118,0.11181 0.7681,13.77053 1.9553,30.35271 2.4422,34.11278 2.5411,36.89941 1.3084,36.89941 -0.4863,0 -11.52259,-9.63501 -24.52502,-21.41115 -13.00242,-11.77613 -24.12839,-21.71102 -24.72437,-22.07752 -0.59598,-0.36652 4.2347,10.281 10.73484,23.66114 l 11.81845,24.32753 5.69015,0 c 4.18025,0 5.69016,0.32279 5.69016,1.21644 0,0.94752 -20.24079,11.38356 -22.07851,11.38356 -0.23182,0 -0.42149,-0.73423 -0.42149,-1.63162 z m 304.92169,-13.93477 c -9.0575,-4.79632 -12.1344,-6.84216 -11.5974,-7.71105 0.5406,-0.87476 2.0232,-1.02121 5.6947,-0.56249 l 4.9637,0.62019 13.8337,-26.40999 c 7.6085,-14.52549 13.9625,-26.9079 14.12,-27.51646 0.1576,-0.60855 -1.0074,-2.71652 -2.5888,-4.68437 -1.6178,-2.0131 -2.6516,-4.16097 -2.3637,-4.91107 0.4019,-1.04727 3.1765,0.0831 12.9388,5.27124 6.835,3.63243 12.4273,7.14801 12.4273,7.8124 0,0.87547 -1.4758,1.20799 -5.3615,1.20799 l -5.3615,0 -14.1701,26.90153 -14.17,26.90154 3.1065,3.79116 c 3.2409,3.95503 3.8907,5.86902 1.9816,5.83676 -0.6187,-0.0104 -6.6728,-2.95678 -13.4533,-6.54738 z m -63.2717,-24.3996 c -24.7193,-7.01196 -26.1005,-7.47598 -26.3729,-8.85976 -0.2103,-1.06856 0.9245,-1.52598 4.95,-1.99526 l 5.2229,-0.60887 8.4094,-29.41006 8.4095,-29.41005 -3.6845,-3.17454 c -2.0264,-1.746 -3.6844,-3.82598 -3.6844,-4.62219 0,-1.20067 3.372,-0.47277 19.7649,4.26659 10.8707,3.14282 21.7044,6.70657 24.075,7.91943 12.7161,6.50595 19.0633,22.15403 15.2009,37.4755 -2.1523,8.53785 -6.546,16.87611 -11.5062,21.83635 -9.9715,9.97149 -21.9964,11.91238 -40.7846,6.58286 z m 23.631,-5.06666 c 9.1734,-4.58397 14.49,-12.08066 17.836,-25.14936 2.7551,-10.76086 0.642,-22.10327 -5.3436,-28.68208 -1.0578,-1.16274 -3.7686,-3.05351 -6.0239,-4.2017 -5.6915,-2.89767 -17.8291,-6.32686 -18.7849,-5.30722 -0.858,0.91528 -18.0822,60.95154 -17.6201,61.41604 0.1604,0.16117 3.6697,1.24604 7.7985,2.41082 10.5792,2.98449 15.4041,2.87847 22.138,-0.4865 z m -183.7781,3.89585 c -0.3017,-0.78603 0.9913,-2.14745 3.4952,-3.68034 l 3.9739,-2.43286 13.0804,-35.89136 c 7.1942,-19.74025 13.2127,-36.02378 13.3746,-36.18563 0.3629,-0.36287 39.734,-5.773 42.0118,-5.773 1.3554,0 1.8188,1.1858 2.6518,6.78676 1.3342,8.97073 1.3001,9.41324 -0.7254,9.41324 -1.1559,0 -2.8296,-1.80213 -5.0152,-5.4 -2.7144,-4.46847 -3.696,-5.39454 -5.6902,-5.36833 -3.1588,0.0415 -18.9734,2.28192 -19.4464,2.75492 -0.5439,0.54386 3.5641,29.4909 4.2879,30.21466 0.6045,0.60452 16.8065,-1.20901 17.5634,-1.96592 0.2094,-0.20945 0.8624,-2.51932 1.4511,-5.13307 0.8358,-3.71107 1.4482,-4.75227 2.7952,-4.75227 1.5276,0 1.897,1.28582 3.2282,11.23846 0.8268,6.18114 1.3123,11.54739 1.0789,11.925 -1.0299,1.66645 -2.7538,0.35416 -5.1582,-3.92686 l -2.5902,-4.61157 -5.9598,0.58754 c -10.9915,1.08357 -11.8133,1.36351 -11.7803,4.01259 0.036,2.93101 3.2887,26.2431 3.7215,26.67592 0.1725,0.17251 5.2726,-0.33481 11.3337,-1.12736 l 11.02,-1.44099 2.4512,-6.59136 c 2.0592,-5.53723 2.7785,-6.59137 4.4976,-6.59137 1.982,0 2.0464,0.26375 2.0464,8.37775 l 0,8.37775 -22.275,2.9526 c -12.2512,1.62395 -23.3887,3.16958 -24.75,3.43476 -3.83,0.74609 -3.1468,-1.97272 1.2221,-4.86397 3.5217,-2.33051 3.6741,-2.61945 3.2109,-6.08776 -0.2674,-2.00262 -0.9986,-7.79238 -1.6247,-12.86613 -1.3142,-10.64863 -0.4106,-10.07265 -12.8911,-8.2164 -6.7561,1.00484 -6.7846,1.02075 -7.6666,4.275 -0.4869,1.79652 -2.4797,8.00413 -4.4283,13.79469 l -3.5431,10.52828 4.4229,1.46905 c 2.4391,0.81012 4.4229,2.02383 4.4229,2.70593 0,1.34384 -1.3703,1.66808 -14.5842,3.45079 -7.401,0.99847 -8.8073,0.98793 -9.2129,-0.0691 z m 39.6189,-42.12083 1.8718,-0.39975 -2.0769,-15.00137 c -1.1422,-8.25076 -2.2303,-15.15488 -2.418,-15.34251 -0.3618,-0.36187 -10.4987,30.39415 -10.4987,31.85395 0,0.76653 7.1775,0.1592 13.1218,-1.11032 z"
       id="path4147"
       inkscape:connector-curvature="0" />
  </g>
</svg>
